<svg width="972" height="352" viewBox="0 0 972 352" fill="none" xmlns="http://www.w3.org/2000/svg">
<g filter="url(#filter0_i_1925_2690)">
<path d="M942.895 0H28.6838C12.8422 0 0 12.8421 0 28.6838V322.622C0 338.463 12.8422 351.305 28.6838 351.305H485.789H704.832H942.895C958.737 351.305 971.579 338.463 971.579 322.622V28.6838C971.579 12.8422 958.737 0 942.895 0Z" fill="black" fill-opacity="0.01"/>
</g>
<g filter="url(#filter1_i_1925_2690)">
<path d="M110.923 292.515C106.015 297.273 100.656 296.522 95.4974 294.268C90.0384 291.964 85.0301 291.864 79.2705 294.268C72.0586 297.373 68.2523 296.472 63.9452 292.515C39.5048 267.323 43.1107 228.96 70.8566 227.558C77.6178 227.908 82.3256 231.264 86.2821 231.564C92.1919 230.362 97.8513 226.906 104.162 227.357C111.724 227.958 117.434 230.963 121.19 236.372C105.564 245.738 109.27 266.322 123.594 272.081C120.739 279.594 117.033 287.056 110.873 292.565L110.923 292.515ZM85.7813 227.257C85.0301 216.089 94.0951 206.873 104.512 205.972C105.965 218.893 92.7929 228.509 85.7813 227.257Z" fill="#606060"/>
</g>
<g filter="url(#filter2_i_1925_2690)">
<path d="M164.071 215.168L204.859 255.167L164.374 295.535C163.712 294.673 163.197 293.706 162.853 292.675C162.674 291.507 162.674 290.319 162.853 289.151V220.456C162.731 218.612 163.156 216.769 164.066 215.168M222.429 237.723L209.115 250.911L168.812 211.276C170.119 210.823 171.519 210.697 172.886 210.912C175.033 211.5 177.082 212.405 178.962 213.586L215.438 233.77C217.809 235.044 220.119 236.383 222.429 237.723ZM209.119 259.484L222.368 272.495L212.764 277.843L183.461 294.131C181.034 295.47 178.598 296.749 176.228 298.209C175.213 298.841 174.076 299.249 172.891 299.406C171.706 299.563 170.502 299.465 169.358 299.119L209.119 259.484ZM243.467 255.167C243.501 256.799 243.089 258.409 242.274 259.824C241.46 261.239 240.275 262.404 238.847 263.194L227.899 269.271L213.492 255.167L227.959 240.822C231.669 242.889 235.319 244.956 238.964 246.902C240.417 247.715 241.611 248.922 242.407 250.385C243.203 251.847 243.574 253.506 243.467 255.167Z" fill="#606060"/>
</g>
<g filter="url(#filter3_i_1925_2690)">
<path d="M85.9338 121.056C85.1541 121.056 84.5693 121.251 84.1794 121.641C83.887 122.031 83.6921 122.567 83.5946 123.249L78.4777 159.798C78.3803 161.065 78.0391 161.845 77.4544 162.137C76.967 162.43 76.0898 162.576 74.8228 162.576H55.0861C53.2343 162.576 52.5521 161.358 53.0394 158.921L67.5129 56.2904C67.7079 55.4132 67.9028 54.8284 68.0977 54.536C68.3901 54.2436 68.9262 54.0974 69.7059 54.0974H113.419C120.729 54.0974 127.259 55.1696 133.009 57.3138C138.857 59.458 143.487 62.7231 146.898 67.109C150.309 71.4949 152.015 77.0504 152.015 83.7755C152.015 91.6702 150.066 98.3953 146.167 103.951C142.366 109.506 137.152 113.746 130.524 116.67C123.896 119.594 116.392 121.056 108.01 121.056H85.9338ZM125.992 83.7755C125.992 79.7795 124.579 76.9042 121.752 75.1499C118.926 73.3955 115.125 72.5183 110.349 72.5183H93.3899C92.3178 72.5183 91.5868 72.7132 91.1969 73.1031C90.8071 73.493 90.5147 74.1752 90.3197 75.1499L86.811 100.588C86.7135 101.563 86.7623 102.196 86.9572 102.489C87.2496 102.684 87.6882 102.781 88.273 102.781H106.109C110.008 102.781 113.419 101.953 116.343 100.296C119.364 98.5415 121.703 96.251 123.36 93.4245C125.115 90.5006 125.992 87.2843 125.992 83.7755ZM194.897 155.412C191.778 158.434 188.123 160.627 183.932 161.991C179.838 163.356 175.501 164.038 170.92 164.038C164 164.038 158.591 162.284 154.692 158.775C150.891 155.169 148.991 150.588 148.991 145.032C148.991 139.477 150.404 134.847 153.23 131.143C156.154 127.342 159.858 124.272 164.341 121.933C168.922 119.594 173.893 117.888 179.253 116.816C184.711 115.744 189.926 115.159 194.897 115.062L200.16 114.623C202.012 114.623 203.084 113.697 203.376 111.845L203.815 108.775C203.912 108.385 203.961 107.996 203.961 107.606C203.961 107.118 203.961 106.729 203.961 106.436C203.961 103.512 203.084 101.319 201.329 99.8572C199.575 98.3953 197.09 97.6643 193.873 97.6643C190.754 97.6643 187.684 98.2978 184.663 99.5648C181.641 100.832 179.01 103.22 176.768 106.729C176.476 107.216 176.086 107.557 175.599 107.752C175.209 107.849 174.526 107.801 173.552 107.606L159.371 104.243C158.786 104.048 158.298 103.61 157.909 102.927C157.616 102.245 157.86 101.076 158.64 99.4186C161.856 93.9606 166.583 89.9645 172.821 87.4305C179.059 84.8964 186.466 83.6293 195.043 83.6293C202.353 83.6293 208.249 84.5065 212.733 86.2609C217.216 88.0152 220.481 90.4519 222.528 93.5707C224.575 96.6896 225.598 100.345 225.598 104.536C225.598 105.218 225.549 105.9 225.452 106.582C225.452 107.265 225.403 107.996 225.306 108.775L217.996 159.944C217.898 161.211 217.703 161.991 217.411 162.284C217.119 162.478 216.436 162.576 215.364 162.576H200.306C199.331 162.576 198.698 162.235 198.405 161.553C198.113 160.87 197.918 159.944 197.821 158.775L197.967 154.974C197.772 153.219 196.748 153.365 194.897 155.412ZM201.183 127.342C201.281 126.563 201.232 126.075 201.037 125.88C200.939 125.588 200.501 125.491 199.721 125.588L194.458 126.027C192.411 126.124 190.072 126.465 187.44 127.05C184.809 127.635 182.275 128.512 179.838 129.682C177.402 130.754 175.355 132.264 173.698 134.214C172.139 136.163 171.359 138.6 171.359 141.523C171.359 143.765 172.187 145.617 173.844 147.079C175.501 148.541 177.84 149.272 180.862 149.272C183.591 149.272 186.027 148.882 188.171 148.102C190.413 147.323 192.314 146.348 193.873 145.178C195.53 143.911 196.895 142.596 197.967 141.231C199.039 139.769 199.672 138.307 199.867 136.845L201.183 127.342ZM263.533 164.038C254.079 164.038 246.525 162.381 240.872 159.067C235.219 155.656 231.321 151.66 229.176 147.079C228.494 145.617 228.835 144.496 230.2 143.716L239.703 139.184C240.677 138.697 241.506 138.502 242.188 138.6C242.968 138.697 243.65 139.233 244.235 140.208C245.697 142.839 247.792 145.13 250.521 147.079C253.348 148.931 257.49 149.857 262.948 149.857C264.215 149.857 265.775 149.759 267.626 149.564C269.576 149.272 271.427 148.833 273.182 148.249C275.034 147.566 276.593 146.64 277.86 145.471C279.127 144.204 279.761 142.596 279.761 140.646C279.761 139.184 279.078 137.917 277.714 136.845C276.349 135.676 274.01 134.652 270.697 133.775L256.223 130.12C249.693 128.463 244.82 126.124 241.603 123.103C238.387 120.081 236.779 116.085 236.779 111.114C236.779 105.072 238.436 100.052 241.749 96.0561C245.161 91.9626 249.595 88.8924 255.053 86.8457C260.511 84.7014 266.359 83.6293 272.597 83.6293C280.297 83.6293 286.583 85.0913 291.457 88.0152C296.33 90.9392 299.936 94.4479 302.275 98.5415C302.665 99.0288 302.811 99.5648 302.714 100.15C302.714 100.734 302.324 101.222 301.544 101.612L291.895 105.998C291.213 106.29 290.628 106.339 290.141 106.144C289.653 105.949 288.922 105.315 287.948 104.243C286.583 102.294 284.585 100.686 281.954 99.4186C279.322 98.0541 276.057 97.3719 272.158 97.3719C269.917 97.3719 267.626 97.6643 265.287 98.2491C263.046 98.7364 261.145 99.6136 259.586 100.881C258.124 102.148 257.393 103.805 257.393 105.851C257.393 107.216 257.831 108.385 258.708 109.36C259.586 110.237 261.437 111.114 264.264 111.992L280.346 115.939C287.363 117.596 292.382 120.325 295.404 124.126C298.425 127.83 299.936 132.021 299.936 136.699C299.936 141.377 298.864 145.471 296.72 148.98C294.673 152.391 291.895 155.217 288.386 157.459C284.878 159.701 280.93 161.358 276.544 162.43C272.256 163.502 267.919 164.038 263.533 164.038ZM339.595 164.038C330.141 164.038 322.588 162.381 316.935 159.067C311.282 155.656 307.383 151.66 305.239 147.079C304.557 145.617 304.898 144.496 306.262 143.716L315.765 139.184C316.74 138.697 317.568 138.502 318.251 138.6C319.03 138.697 319.713 139.233 320.297 140.208C321.759 142.839 323.855 145.13 326.584 147.079C329.41 148.931 333.553 149.857 339.011 149.857C340.278 149.857 341.837 149.759 343.689 149.564C345.638 149.272 347.49 148.833 349.245 148.249C351.096 147.566 352.656 146.64 353.923 145.471C355.19 144.204 355.823 142.596 355.823 140.646C355.823 139.184 355.141 137.917 353.777 136.845C352.412 135.676 350.073 134.652 346.759 133.775L332.286 130.12C325.755 128.463 320.882 126.124 317.666 123.103C314.45 120.081 312.841 116.085 312.841 111.114C312.841 105.072 314.498 100.052 317.812 96.0561C321.223 91.9626 325.658 88.8924 331.116 86.8457C336.574 84.7014 342.422 83.6293 348.66 83.6293C356.359 83.6293 362.646 85.0913 367.519 88.0152C372.392 90.9392 375.999 94.4479 378.338 98.5415C378.728 99.0288 378.874 99.5648 378.776 100.15C378.776 100.734 378.387 101.222 377.607 101.612L367.958 105.998C367.276 106.29 366.691 106.339 366.203 106.144C365.716 105.949 364.985 105.315 364.01 104.243C362.646 102.294 360.648 100.686 358.016 99.4186C355.385 98.0541 352.12 97.3719 348.221 97.3719C345.979 97.3719 343.689 97.6643 341.35 98.2491C339.108 98.7364 337.208 99.6136 335.648 100.881C334.186 102.148 333.455 103.805 333.455 105.851C333.455 107.216 333.894 108.385 334.771 109.36C335.648 110.237 337.5 111.114 340.326 111.992L356.408 115.939C363.426 117.596 368.445 120.325 371.467 124.126C374.488 127.83 375.999 132.021 375.999 136.699C375.999 141.377 374.927 145.471 372.782 148.98C370.736 152.391 367.958 155.217 364.449 157.459C360.94 159.701 356.993 161.358 352.607 162.43C348.319 163.502 343.981 164.038 339.595 164.038ZM406.594 159.652C406.399 161.016 406.058 161.845 405.57 162.137C405.083 162.43 404.157 162.576 402.793 162.576H387.296C386.029 162.576 385.152 162.235 384.664 161.553C384.274 160.87 384.128 159.993 384.226 158.921L394.313 87.2843C394.411 86.3096 394.606 85.7248 394.898 85.5299C395.19 85.2375 395.727 85.0913 396.506 85.0913H415.073C415.756 85.0913 416.194 85.4324 416.389 86.1147C416.681 86.7969 416.779 87.5279 416.681 88.3076L406.594 159.652ZM419.021 72.6645C418.826 73.9316 418.436 74.76 417.851 75.1499C417.364 75.5397 416.438 75.7347 415.073 75.7347H398.261C397.286 75.7347 396.652 75.3448 396.36 74.5651C396.068 73.7854 396.019 72.8594 396.214 71.7873L398.407 57.0214C398.699 55.0721 399.576 54.0974 401.038 54.0974H419.605C420.288 54.0974 420.726 54.4386 420.921 55.1208C421.214 55.8031 421.262 56.5828 421.067 57.46L419.021 72.6645ZM457.127 164.038C450.012 164.038 443.823 162.625 438.56 159.798C433.394 156.874 429.398 152.878 426.572 147.81C423.745 142.644 422.332 136.699 422.332 129.974C422.332 123.151 423.501 116.914 425.841 111.261C428.277 105.51 431.542 100.588 435.636 96.4947C439.729 92.4012 444.456 89.2336 449.817 86.9919C455.275 84.7502 460.977 83.6293 466.922 83.6293C474.037 83.6293 480.177 85.14 485.343 88.1614C490.606 91.0854 494.602 95.1789 497.331 100.442C500.158 105.608 501.571 111.602 501.571 118.424C501.571 127.099 499.621 134.896 495.723 141.816C491.824 148.736 486.512 154.194 479.787 158.19C473.062 162.089 465.509 164.038 457.127 164.038ZM457.712 149.126C461.708 149.126 465.314 147.81 468.53 145.178C471.844 142.449 474.476 138.502 476.425 133.336C478.374 128.073 479.349 121.641 479.349 114.038C479.349 108.775 478.277 104.828 476.132 102.196C473.988 99.4674 470.821 98.1029 466.63 98.1029C462.634 98.1029 458.979 99.4674 455.665 102.196C452.351 104.925 449.719 108.921 447.77 114.185C445.821 119.448 444.846 125.88 444.846 133.483C444.846 138.648 445.918 142.547 448.063 145.178C450.207 147.81 453.423 149.126 457.712 149.126ZM509.558 162.576C508.583 162.576 507.95 162.235 507.657 161.553C507.462 160.773 507.414 159.896 507.511 158.921L517.599 87.1381C517.696 86.2609 517.891 85.7248 518.184 85.5299C518.476 85.2375 518.963 85.0913 519.646 85.0913H538.359C538.944 85.0913 539.333 85.2375 539.528 85.5299C539.821 85.7248 539.87 86.2121 539.675 86.9919L538.651 94.3017C538.554 95.4713 539.041 95.5688 540.113 94.5941C544.109 91.2803 548.252 88.6488 552.54 86.6995C556.828 84.6527 561.214 83.6293 565.698 83.6293C572.325 83.6293 577.491 85.4324 581.195 89.0386C584.898 92.6448 586.75 97.3719 586.75 103.22C586.75 103.902 586.701 104.584 586.604 105.267C586.604 105.949 586.555 106.631 586.458 107.313L579.148 159.652C578.953 160.822 578.612 161.601 578.125 161.991C577.637 162.381 576.76 162.576 575.493 162.576H558.68C557.608 162.576 556.975 162.235 556.78 161.553C556.585 160.87 556.536 159.993 556.634 158.921L563.505 110.091C563.602 109.506 563.651 108.97 563.651 108.483C563.748 107.996 563.797 107.606 563.797 107.313C563.797 104.877 563.066 103.025 561.604 101.758C560.24 100.491 558.095 99.8572 555.172 99.8572C553.027 99.8572 550.932 100.247 548.885 101.027C546.936 101.807 544.986 102.927 543.037 104.389C541.185 105.754 539.236 107.46 537.189 109.506L529.879 159.798C529.684 161.065 529.295 161.845 528.71 162.137C528.222 162.43 527.297 162.576 525.932 162.576H509.558ZM648.256 101.465C646.112 98.3465 643.188 95.8612 639.484 94.0093C635.878 92.06 631.541 91.0854 626.472 91.0854C620.819 91.0854 616.092 92.3037 612.291 94.7403C608.588 97.0795 606.736 100.345 606.736 104.536C606.736 106.777 607.564 108.921 609.221 110.968C610.976 112.918 614.436 114.721 619.601 116.378L638.607 122.225C644.942 124.077 649.572 126.709 652.496 130.12C655.42 133.434 656.882 137.333 656.882 141.816C656.882 146.202 655.517 150.052 652.788 153.365C650.156 156.679 646.502 159.311 641.823 161.26C637.145 163.112 631.882 164.038 626.034 164.038C618.627 164.038 612.048 162.527 606.297 159.506C600.644 156.484 596.599 152.586 594.163 147.81C593.968 147.42 593.87 147.079 593.87 146.787C593.87 146.494 594.065 146.202 594.455 145.909L599.134 143.132C599.523 142.937 599.865 142.888 600.157 142.985C600.547 142.985 600.839 143.132 601.034 143.424C602.691 146.056 604.689 148.346 607.028 150.295C609.367 152.245 612.096 153.755 615.215 154.827C618.432 155.9 622.087 156.436 626.18 156.436C630.176 156.436 633.782 155.9 636.999 154.827C640.215 153.658 642.749 152.05 644.601 150.003C646.55 147.956 647.525 145.568 647.525 142.839C647.525 139.915 646.307 137.43 643.87 135.383C641.531 133.239 637.535 131.387 631.882 129.828L616.97 125.442C609.562 123.298 604.445 120.617 601.619 117.401C598.89 114.087 597.525 110.383 597.525 106.29C597.525 101.709 598.744 97.7617 601.18 94.4479C603.714 91.0367 607.174 88.4051 611.56 86.5533C615.946 84.604 620.966 83.6293 626.619 83.6293C632.954 83.6293 638.607 84.8476 643.578 87.2843C648.548 89.7209 652.398 93.0347 655.127 97.2257C655.42 97.5181 655.566 97.8105 655.566 98.1029C655.566 98.3953 655.371 98.6389 654.981 98.8339L650.01 101.758C649.718 101.855 649.425 101.904 649.133 101.904C648.841 101.904 648.548 101.758 648.256 101.465ZM679.957 128.22C679.957 133.19 681.175 137.82 683.612 142.108C686.048 146.397 689.265 149.857 693.261 152.488C697.354 155.022 701.935 156.289 707.003 156.289C712.364 156.289 716.993 155.217 720.892 153.073C724.888 150.929 728.251 147.761 730.98 143.57C731.272 143.083 731.564 142.839 731.857 142.839C732.149 142.742 732.49 142.791 732.88 142.985L737.851 145.763C738.631 146.153 738.679 146.738 737.997 147.518C735.56 151.221 732.783 154.291 729.664 156.728C726.642 159.165 723.182 161.016 719.284 162.284C715.385 163.453 711.097 164.038 706.418 164.038C699.206 164.038 692.871 162.381 687.413 159.067C681.955 155.753 677.666 151.124 674.547 145.178C671.429 139.136 669.869 132.264 669.869 124.565C669.869 115.988 671.477 108.678 674.694 102.635C677.91 96.5922 682.247 91.9138 687.705 88.6C693.163 85.2862 699.352 83.6293 706.272 83.6293C713.29 83.6293 719.381 85.1888 724.547 88.3076C729.713 91.4265 733.709 95.9099 736.535 101.758C739.362 107.606 740.775 114.672 740.775 122.956C740.775 123.639 740.677 124.321 740.482 125.003C740.385 125.685 739.8 126.027 738.728 126.027H680.98C680.688 126.027 680.444 126.27 680.249 126.758C680.054 127.147 679.957 127.635 679.957 128.22ZM728.494 119.155C729.566 119.155 730.249 119.009 730.541 118.717C730.833 118.424 730.98 117.888 730.98 117.109C730.98 112.43 729.956 108.142 727.909 104.243C725.96 100.247 723.134 97.0795 719.43 94.7403C715.824 92.3037 711.487 91.0854 706.418 91.0854C700.668 91.0854 695.843 92.4986 691.945 95.3251C688.046 98.0541 685.074 101.563 683.027 105.851C681.078 110.14 680.103 114.574 680.103 119.155H728.494ZM763.158 128.22C763.158 133.19 764.376 137.82 766.813 142.108C769.25 146.397 772.466 149.857 776.462 152.488C780.555 155.022 785.136 156.289 790.205 156.289C795.565 156.289 800.195 155.217 804.093 153.073C808.089 150.929 811.452 147.761 814.181 143.57C814.473 143.083 814.766 142.839 815.058 142.839C815.35 142.742 815.692 142.791 816.081 142.985L821.052 145.763C821.832 146.153 821.881 146.738 821.198 147.518C818.762 151.221 815.984 154.291 812.865 156.728C809.844 159.165 806.384 161.016 802.485 162.284C798.587 163.453 794.298 164.038 789.62 164.038C782.407 164.038 776.072 162.381 770.614 159.067C765.156 155.753 760.868 151.124 757.749 145.178C754.63 139.136 753.07 132.264 753.07 124.565C753.07 115.988 754.679 108.678 757.895 102.635C761.111 96.5922 765.448 91.9138 770.906 88.6C776.364 85.2862 782.554 83.6293 789.474 83.6293C796.491 83.6293 802.583 85.1888 807.748 88.3076C812.914 91.4265 816.91 95.9099 819.736 101.758C822.563 107.606 823.976 114.672 823.976 122.956C823.976 123.639 823.879 124.321 823.684 125.003C823.586 125.685 823.001 126.027 821.929 126.027H764.181C763.889 126.027 763.645 126.27 763.45 126.758C763.255 127.147 763.158 127.635 763.158 128.22ZM811.696 119.155C812.768 119.155 813.45 119.009 813.742 118.717C814.035 118.424 814.181 117.888 814.181 117.109C814.181 112.43 813.158 108.142 811.111 104.243C809.161 100.247 806.335 97.0795 802.631 94.7403C799.025 92.3037 794.688 91.0854 789.62 91.0854C783.869 91.0854 779.045 92.4986 775.146 95.3251C771.248 98.0541 768.275 101.563 766.228 105.851C764.279 110.14 763.304 114.574 763.304 119.155H811.696ZM896.505 162.576C895.92 162.576 895.433 162.43 895.043 162.137C894.751 161.747 894.604 161.26 894.604 160.675V153.95C894.604 153.171 894.458 152.732 894.166 152.635C893.873 152.537 893.435 152.781 892.85 153.365C891.875 154.34 890.413 155.705 888.464 157.459C886.515 159.116 883.981 160.627 880.862 161.991C877.743 163.356 873.942 164.038 869.458 164.038C863.318 164.038 857.763 162.625 852.792 159.798C847.821 156.874 843.825 152.537 840.804 146.787C837.88 140.939 836.418 133.726 836.418 125.149C836.418 116.865 837.88 109.652 840.804 103.512C843.728 97.2744 847.821 92.4012 853.084 88.8924C858.347 85.3837 864.39 83.6293 871.213 83.6293C876.281 83.6293 880.423 84.4578 883.64 86.1147C886.953 87.7716 889.78 89.5747 892.119 91.524C892.996 92.2062 893.581 92.4499 893.873 92.255C894.166 92.06 894.312 91.4752 894.312 90.5006V55.8518C894.312 54.6822 894.848 54.0974 895.92 54.0974H902.499C903.474 54.0974 903.961 54.6335 903.961 55.7056V160.529C903.961 161.309 903.815 161.845 903.522 162.137C903.23 162.43 902.694 162.576 901.914 162.576H896.505ZM894.312 101.465C890.998 98.2491 887.636 95.7637 884.224 94.0093C880.91 92.1575 877.207 91.2316 873.113 91.2316C867.948 91.2316 863.318 92.5474 859.225 95.1789C855.228 97.713 852.061 101.465 849.722 106.436C847.48 111.407 846.359 117.45 846.359 124.565C846.359 131.972 847.529 138.063 849.868 142.839C852.305 147.518 855.472 150.978 859.371 153.219C863.269 155.461 867.509 156.582 872.09 156.582C876.281 156.582 880.033 155.558 883.347 153.512C886.758 151.465 889.439 148.98 891.388 146.056C893.337 143.132 894.312 140.305 894.312 137.576V101.465Z" fill="url(#paint0_linear_1925_2690)"/>
</g>
<path d="M340.696 252.185L325.641 210.423C325.231 209.15 324.747 207.689 324.19 206.041C323.627 204.345 323.097 202.522 322.599 200.571C322.136 202.695 321.652 204.649 321.146 206.435C320.639 208.22 320.184 209.827 319.779 211.255L305.246 256.768L340.696 252.185ZM368.218 287.766L357.779 289.115C356.571 289.271 355.591 289.103 354.839 288.611C354.081 288.07 353.495 287.335 353.08 286.406L344.145 261.764L301.88 267.227L293.271 294.138C292.949 295.064 292.372 295.925 291.541 296.72C290.753 297.461 289.803 297.903 288.691 298.047L278.107 299.415L315.568 188.95L329.343 187.169L368.218 287.766ZM389.533 268.647C391.701 270.971 394.138 272.524 396.843 273.304C399.542 274.036 402.22 274.23 404.879 273.887C407.392 273.562 409.691 272.724 411.777 271.373C413.863 270.023 415.708 268.335 417.314 266.309C418.913 264.235 420.281 261.896 421.419 259.292C422.55 256.64 423.421 253.874 424.031 250.994C424.684 248.06 425.085 245.084 425.236 242.067C425.38 239.002 425.265 236.019 424.89 233.12C424.146 227.368 422.542 223.129 420.076 220.401C417.611 217.673 414.493 216.553 410.723 217.04C408.403 217.34 406.153 218.368 403.972 220.124C401.785 221.832 399.746 224.11 397.854 226.959C396.01 229.802 394.35 233.112 392.872 236.89C391.444 240.662 390.3 244.741 389.442 249.127L389.533 268.647ZM388.612 230.733C390.037 227.306 391.67 224.171 393.514 221.329C395.352 218.438 397.36 215.918 399.539 213.769C401.718 211.62 404.026 209.896 406.462 208.599C408.941 207.246 411.534 206.395 414.24 206.045C420.523 205.233 425.674 206.877 429.693 210.976C433.76 215.069 436.359 221.49 437.49 230.238C438.002 234.201 438.104 238.217 437.794 242.286C437.485 246.356 436.791 250.303 435.713 254.127C434.677 257.897 433.275 261.494 431.506 264.916C429.78 268.284 427.737 271.3 425.379 273.964C423.063 276.573 420.443 278.729 417.518 280.434C414.594 282.139 411.44 283.21 408.057 283.647C404.432 284.116 401.055 283.84 397.926 282.82C394.79 281.751 392.014 280.046 389.599 277.705L389.826 310.254L377.285 311.875L376.529 211.952L382.908 211.128C385.808 210.753 387.446 212.015 387.82 214.915L388.612 230.733ZM464.685 258.932C466.853 261.256 469.289 262.808 471.995 263.589C474.694 264.321 477.372 264.515 480.03 264.171C482.543 263.847 484.843 263.009 486.929 261.658C489.014 260.307 490.86 258.619 492.465 256.594C494.064 254.52 495.433 252.181 496.57 249.577C497.702 246.924 498.572 244.158 499.183 241.279C499.835 238.344 500.237 235.369 500.387 232.352C500.532 229.287 500.416 226.304 500.042 223.404C499.298 217.653 497.693 213.413 495.228 210.686C492.762 207.958 489.645 206.837 485.875 207.325C483.555 207.625 481.305 208.653 479.124 210.409C476.937 212.116 474.897 214.395 473.005 217.244C471.162 220.086 469.501 223.397 468.024 227.175C466.595 230.947 465.452 235.025 464.594 239.411L464.685 258.932ZM463.764 221.018C465.188 217.591 466.822 214.456 468.666 211.613C470.503 208.722 472.512 206.202 474.691 204.053C476.87 201.904 479.178 200.181 481.614 198.883C484.093 197.531 486.685 196.68 489.392 196.33C495.675 195.518 500.826 197.161 504.844 201.261C508.912 205.354 511.511 211.775 512.641 220.522C513.154 224.485 513.255 228.502 512.946 232.571C512.637 236.64 511.943 240.587 510.865 244.412C509.829 248.182 508.427 251.778 506.658 255.201C504.931 258.569 502.889 261.585 500.531 264.248C498.215 266.857 495.594 269.014 492.67 270.719C489.745 272.424 486.592 273.495 483.208 273.932C479.584 274.401 476.207 274.125 473.077 273.104C469.942 272.036 467.166 270.331 464.751 267.989L464.978 300.538L452.436 302.16L451.68 202.237L458.06 201.412C460.96 201.038 462.597 202.3 462.972 205.2L463.764 221.018Z" fill="black"/>
<g filter="url(#filter4_i_1925_2690)">
<path d="M620.168 249.645C622.153 249.645 623.865 249.372 625.303 248.825C626.77 248.279 627.964 247.517 628.884 246.539C629.805 245.532 630.481 244.338 630.912 242.957C631.373 241.548 631.603 240.009 631.603 238.34C631.603 236.068 630.884 234.256 629.445 232.904C628.007 231.552 625.648 230.876 622.369 230.876H611.841L609.554 249.645H620.168ZM615.077 204.598L612.79 223.152H621.074C624.929 223.152 627.892 222.246 629.963 220.434C632.063 218.621 633.113 215.846 633.113 212.106C633.113 209.488 632.365 207.59 630.869 206.41C629.402 205.202 627.101 204.598 623.965 204.598H615.077ZM625.001 195.969C628.453 195.969 631.401 196.314 633.846 197.004C636.32 197.666 638.334 198.615 639.887 199.852C641.469 201.089 642.634 202.585 643.382 204.339C644.13 206.094 644.504 208.05 644.504 210.208C644.504 211.991 644.26 213.703 643.771 215.342C643.31 216.953 642.577 218.449 641.57 219.83C640.563 221.21 639.283 222.447 637.73 223.54C636.176 224.633 634.321 225.54 632.164 226.259C635.702 227.15 638.334 228.603 640.06 230.617C641.786 232.602 642.649 235.133 642.649 238.211C642.649 241.087 642.117 243.763 641.052 246.236C639.988 248.682 638.449 250.81 636.435 252.622C634.422 254.406 631.962 255.815 629.057 256.851C626.18 257.858 622.915 258.361 619.262 258.361H597.3L604.98 195.969H625.001ZM670.343 220.908C668.905 220.908 667.567 221.21 666.33 221.814C665.094 222.39 663.972 223.21 662.965 224.274C661.987 225.338 661.124 226.618 660.376 228.114C659.657 229.581 659.082 231.192 658.65 232.947C662.217 232.458 665.079 231.926 667.237 231.35C669.423 230.746 671.106 230.113 672.285 229.452C673.464 228.761 674.241 228.028 674.615 227.251C675.018 226.446 675.219 225.612 675.219 224.749C675.219 224.317 675.118 223.871 674.917 223.411C674.744 222.951 674.457 222.548 674.054 222.203C673.68 221.829 673.177 221.527 672.544 221.297C671.94 221.038 671.206 220.908 670.343 220.908ZM657.744 240.325C657.744 247.286 660.692 250.767 666.589 250.767C667.855 250.767 668.977 250.652 669.955 250.422C670.933 250.163 671.782 249.861 672.501 249.516C673.249 249.171 673.91 248.782 674.486 248.351C675.09 247.919 675.636 247.531 676.125 247.186C676.643 246.841 677.146 246.553 677.635 246.323C678.124 246.064 678.657 245.934 679.232 245.934C679.577 245.934 679.908 246.021 680.224 246.193C680.569 246.366 680.871 246.596 681.13 246.884L683.849 250.163C682.324 251.688 680.828 253.011 679.361 254.133C677.894 255.255 676.398 256.175 674.874 256.894C673.349 257.613 671.738 258.145 670.041 258.491C668.344 258.836 666.503 259.008 664.518 259.008C661.929 259.008 659.585 258.577 657.485 257.714C655.385 256.822 653.587 255.585 652.091 254.003C650.596 252.392 649.431 250.465 648.596 248.221C647.791 245.949 647.388 243.417 647.388 240.627C647.388 238.297 647.633 236.01 648.122 233.767C648.64 231.523 649.373 229.394 650.322 227.381C651.272 225.367 652.437 223.512 653.817 221.814C655.198 220.117 656.752 218.65 658.477 217.413C660.232 216.176 662.145 215.213 664.216 214.522C666.316 213.832 668.56 213.487 670.947 213.487C673.249 213.487 675.262 213.818 676.988 214.479C678.743 215.141 680.195 216.004 681.346 217.068C682.526 218.104 683.403 219.269 683.978 220.563C684.553 221.858 684.841 223.123 684.841 224.36C684.841 226.345 684.438 228.157 683.633 229.797C682.856 231.437 681.447 232.904 679.404 234.198C677.391 235.493 674.629 236.614 671.12 237.564C667.611 238.484 663.152 239.218 657.744 239.764V240.325ZM691.781 249.343C691.781 249.142 691.781 248.912 691.781 248.653C691.781 248.365 691.796 247.962 691.824 247.445C691.882 246.898 691.954 246.193 692.04 245.33C692.155 244.439 692.299 243.302 692.472 241.922L694.931 222.073H690.746C690.228 222.073 689.796 221.886 689.451 221.512C689.135 221.138 689.034 220.578 689.149 219.83L689.624 215.601L696.355 214.436L699.893 202.355C700.095 201.779 700.397 201.333 700.799 201.017C701.202 200.7 701.705 200.542 702.31 200.542H708.005L706.279 214.479H716.98L716.074 222.073H705.33L702.957 241.361C702.813 242.54 702.698 243.475 702.612 244.165C702.525 244.856 702.453 245.402 702.396 245.805C702.367 246.179 702.353 246.452 702.353 246.625C702.353 246.769 702.353 246.869 702.353 246.927C702.353 248.02 702.612 248.883 703.129 249.516C703.676 250.149 704.438 250.465 705.416 250.465C706.02 250.465 706.538 250.393 706.97 250.249C707.401 250.077 707.775 249.904 708.091 249.732C708.408 249.559 708.695 249.401 708.954 249.257C709.213 249.084 709.458 248.998 709.688 248.998C710.004 248.998 710.249 249.084 710.421 249.257C710.594 249.401 710.752 249.631 710.896 249.947L713.183 255.125C711.601 256.42 709.846 257.398 707.919 258.059C706.02 258.721 704.079 259.052 702.094 259.052C698.958 259.052 696.47 258.203 694.629 256.506C692.817 254.809 691.868 252.421 691.781 249.343ZM747.265 221.081C746.863 221.052 746.474 221.038 746.1 221.038C745.755 221.009 745.41 220.995 745.065 220.995C742.677 220.995 740.462 221.541 738.42 222.634C736.378 223.727 734.609 225.209 733.113 227.079C731.646 228.92 730.481 231.077 729.618 233.551C728.784 235.996 728.366 238.585 728.366 241.318C728.366 244.424 728.855 246.697 729.834 248.135C730.812 249.573 732.149 250.292 733.846 250.292C735.026 250.292 736.176 249.89 737.298 249.084C738.449 248.25 739.528 247.128 740.534 245.719C741.57 244.28 742.505 242.598 743.339 240.67C744.202 238.743 744.95 236.672 745.583 234.457L747.265 221.081ZM744.331 249.127C742.375 252.148 740.16 254.55 737.687 256.333C735.241 258.117 732.566 259.008 729.661 259.008C727.993 259.008 726.425 258.678 724.958 258.016C723.519 257.354 722.254 256.376 721.161 255.082C720.096 253.759 719.248 252.119 718.615 250.163C718.011 248.178 717.709 245.863 717.709 243.216C717.709 240.57 718.04 237.995 718.701 235.493C719.363 232.99 720.298 230.646 721.506 228.459C722.743 226.244 724.224 224.216 725.95 222.375C727.676 220.534 729.603 218.952 731.732 217.629C733.889 216.306 736.205 215.285 738.679 214.566C741.182 213.818 743.814 213.444 746.575 213.444C748.56 213.444 750.545 213.587 752.53 213.875C754.543 214.163 756.499 214.681 758.398 215.428L753.091 258.361H747.438C746.086 258.361 745.166 258.03 744.677 257.369C744.216 256.678 743.986 255.83 743.986 254.823L744.331 249.127ZM783.411 249.343C783.411 249.142 783.411 248.912 783.411 248.653C783.411 248.365 783.425 247.962 783.454 247.445C783.512 246.898 783.584 246.193 783.67 245.33C783.785 244.439 783.929 243.302 784.101 241.922L786.561 222.073H782.376C781.858 222.073 781.426 221.886 781.081 221.512C780.765 221.138 780.664 220.578 780.779 219.83L781.254 215.601L787.985 214.436L791.523 202.355C791.724 201.779 792.026 201.333 792.429 201.017C792.832 200.7 793.335 200.542 793.939 200.542H799.635L797.909 214.479H808.61L807.704 222.073H796.96L794.587 241.361C794.443 242.54 794.328 243.475 794.241 244.165C794.155 244.856 794.083 245.402 794.026 245.805C793.997 246.179 793.982 246.452 793.982 246.625C793.982 246.769 793.982 246.869 793.982 246.927C793.982 248.02 794.241 248.883 794.759 249.516C795.306 250.149 796.068 250.465 797.046 250.465C797.65 250.465 798.168 250.393 798.599 250.249C799.031 250.077 799.405 249.904 799.721 249.732C800.038 249.559 800.325 249.401 800.584 249.257C800.843 249.084 801.088 248.998 801.318 248.998C801.634 248.998 801.879 249.084 802.051 249.257C802.224 249.401 802.382 249.631 802.526 249.947L804.813 255.125C803.231 256.42 801.476 257.398 799.549 258.059C797.65 258.721 795.708 259.052 793.724 259.052C790.588 259.052 788.1 258.203 786.259 256.506C784.447 254.809 783.497 252.421 783.411 249.343ZM832.554 220.908C831.116 220.908 829.779 221.21 828.542 221.814C827.305 222.39 826.183 223.21 825.176 224.274C824.198 225.338 823.335 226.618 822.587 228.114C821.868 229.581 821.293 231.192 820.861 232.947C824.428 232.458 827.29 231.926 829.448 231.35C831.634 230.746 833.317 230.113 834.496 229.452C835.676 228.761 836.452 228.028 836.826 227.251C837.229 226.446 837.43 225.612 837.43 224.749C837.43 224.317 837.33 223.871 837.128 223.411C836.956 222.951 836.668 222.548 836.265 222.203C835.891 221.829 835.388 221.527 834.755 221.297C834.151 221.038 833.417 220.908 832.554 220.908ZM819.955 240.325C819.955 247.286 822.904 250.767 828.801 250.767C830.066 250.767 831.188 250.652 832.166 250.422C833.144 250.163 833.993 249.861 834.712 249.516C835.46 249.171 836.121 248.782 836.697 248.351C837.301 247.919 837.847 247.531 838.336 247.186C838.854 246.841 839.358 246.553 839.847 246.323C840.336 246.064 840.868 245.934 841.443 245.934C841.788 245.934 842.119 246.021 842.435 246.193C842.781 246.366 843.083 246.596 843.342 246.884L846.06 250.163C844.535 251.688 843.04 253.011 841.572 254.133C840.105 255.255 838.61 256.175 837.085 256.894C835.56 257.613 833.95 258.145 832.252 258.491C830.555 258.836 828.714 259.008 826.729 259.008C824.141 259.008 821.796 258.577 819.696 257.714C817.596 256.822 815.798 255.585 814.303 254.003C812.807 252.392 811.642 250.465 810.808 248.221C810.002 245.949 809.599 243.417 809.599 240.627C809.599 238.297 809.844 236.01 810.333 233.767C810.851 231.523 811.584 229.394 812.534 227.381C813.483 225.367 814.648 223.512 816.029 221.814C817.409 220.117 818.963 218.65 820.689 217.413C822.443 216.176 824.356 215.213 826.427 214.522C828.527 213.832 830.771 213.487 833.159 213.487C835.46 213.487 837.473 213.818 839.199 214.479C840.954 215.141 842.407 216.004 843.557 217.068C844.737 218.104 845.614 219.269 846.189 220.563C846.765 221.858 847.052 223.123 847.052 224.36C847.052 226.345 846.65 228.157 845.844 229.797C845.068 231.437 843.658 232.904 841.616 234.198C839.602 235.493 836.841 236.614 833.331 237.564C829.822 238.484 825.363 239.218 819.955 239.764V240.325ZM880.173 222.419C879.857 222.879 879.555 223.21 879.267 223.411C878.98 223.584 878.606 223.67 878.146 223.67C877.628 223.67 877.11 223.526 876.592 223.238C876.074 222.951 875.47 222.634 874.78 222.289C874.118 221.915 873.342 221.584 872.45 221.297C871.587 221.009 870.551 220.865 869.343 220.865C867.071 220.865 865.33 221.383 864.122 222.419C862.914 223.425 862.31 224.691 862.31 226.216C862.31 227.395 862.727 228.344 863.561 229.063C864.424 229.783 865.503 230.415 866.797 230.962C868.092 231.508 869.473 232.069 870.94 232.645C872.436 233.191 873.831 233.896 875.125 234.759C876.42 235.593 877.484 236.686 878.318 238.038C879.181 239.362 879.613 241.073 879.613 243.173C879.613 245.302 879.181 247.33 878.318 249.257C877.484 251.184 876.276 252.881 874.694 254.348C873.112 255.787 871.199 256.937 868.955 257.8C866.74 258.634 864.237 259.052 861.447 259.052C860.066 259.052 858.714 258.908 857.391 258.62C856.068 258.361 854.831 257.987 853.68 257.498C852.558 257.009 851.523 256.434 850.574 255.772C849.624 255.111 848.819 254.392 848.157 253.615L850.789 249.559C851.106 249.07 851.48 248.696 851.911 248.437C852.343 248.178 852.875 248.049 853.508 248.049C854.112 248.049 854.658 248.236 855.147 248.61C855.636 248.984 856.197 249.401 856.83 249.861C857.492 250.292 858.283 250.695 859.203 251.069C860.153 251.443 861.361 251.63 862.828 251.63C864.007 251.63 865.043 251.472 865.935 251.155C866.855 250.839 867.632 250.408 868.265 249.861C868.897 249.314 869.372 248.682 869.688 247.962C870.005 247.243 870.163 246.481 870.163 245.676C870.163 244.698 869.919 243.892 869.43 243.259C868.941 242.598 868.279 242.037 867.445 241.576C866.639 241.087 865.719 240.67 864.683 240.325C863.648 239.951 862.583 239.563 861.49 239.16C860.426 238.757 859.376 238.297 858.34 237.779C857.334 237.262 856.413 236.614 855.579 235.838C854.773 235.032 854.126 234.069 853.637 232.947C853.148 231.796 852.904 230.401 852.904 228.761C852.904 226.805 853.278 224.907 854.026 223.066C854.773 221.196 855.867 219.556 857.305 218.147C858.743 216.709 860.512 215.558 862.612 214.695C864.741 213.832 867.171 213.401 869.904 213.401C872.723 213.401 875.226 213.89 877.412 214.868C879.598 215.817 881.425 217.039 882.892 218.535L880.173 222.419ZM888.525 249.343C888.525 249.142 888.525 248.912 888.525 248.653C888.525 248.365 888.539 247.962 888.568 247.445C888.625 246.898 888.697 246.193 888.784 245.33C888.899 244.439 889.042 243.302 889.215 241.922L891.675 222.073H887.489C886.971 222.073 886.54 221.886 886.195 221.512C885.878 221.138 885.778 220.578 885.893 219.83L886.367 215.601L893.098 214.436L896.637 202.355C896.838 201.779 897.14 201.333 897.543 201.017C897.945 200.7 898.449 200.542 899.053 200.542H904.749L903.023 214.479H913.723L912.817 222.073H902.073L899.7 241.361C899.556 242.54 899.441 243.475 899.355 244.165C899.269 244.856 899.197 245.402 899.139 245.805C899.11 246.179 899.096 246.452 899.096 246.625C899.096 246.769 899.096 246.869 899.096 246.927C899.096 248.02 899.355 248.883 899.873 249.516C900.419 250.149 901.182 250.465 902.16 250.465C902.764 250.465 903.281 250.393 903.713 250.249C904.144 250.077 904.518 249.904 904.835 249.732C905.151 249.559 905.439 249.401 905.698 249.257C905.957 249.084 906.201 248.998 906.431 248.998C906.748 248.998 906.992 249.084 907.165 249.257C907.337 249.401 907.496 249.631 907.639 249.947L909.926 255.125C908.344 256.42 906.59 257.398 904.662 258.059C902.764 258.721 900.822 259.052 898.837 259.052C895.702 259.052 893.214 258.203 891.373 256.506C889.56 254.809 888.611 252.421 888.525 249.343Z" fill="black"/>
</g>
<path d="M690.082 308.729V312.789H667.153V308.729H676.319V279.56C676.319 278.684 676.349 277.798 676.408 276.903L668.795 283.441C668.536 283.66 668.278 283.799 668.019 283.859C667.76 283.899 667.521 283.899 667.302 283.859C667.083 283.819 666.874 283.74 666.675 283.62C666.496 283.501 666.357 283.371 666.257 283.232L664.585 280.933L677.334 269.916H681.663V308.729H690.082ZM726.571 291.413C726.571 295.154 726.163 298.399 725.347 301.146C724.551 303.872 723.456 306.132 722.063 307.923C720.669 309.714 719.017 311.048 717.107 311.924C715.216 312.799 713.186 313.237 711.016 313.237C708.827 313.237 706.786 312.799 704.896 311.924C703.025 311.048 701.392 309.714 699.999 307.923C698.606 306.132 697.511 303.872 696.715 301.146C695.919 298.399 695.521 295.154 695.521 291.413C695.521 287.671 695.919 284.426 696.715 281.68C697.511 278.933 698.606 276.664 699.999 274.872C701.392 273.061 703.025 271.718 704.896 270.842C706.786 269.966 708.827 269.528 711.016 269.528C713.186 269.528 715.216 269.966 717.107 270.842C719.017 271.718 720.669 273.061 722.063 274.872C723.456 276.664 724.551 278.933 725.347 281.68C726.163 284.426 726.571 287.671 726.571 291.413ZM721.048 291.413C721.048 288.148 720.769 285.412 720.212 283.202C719.674 280.973 718.938 279.182 718.002 277.828C717.087 276.475 716.022 275.509 714.808 274.932C713.594 274.335 712.33 274.036 711.016 274.036C709.702 274.036 708.438 274.335 707.224 274.932C706.01 275.509 704.945 276.475 704.03 277.828C703.114 279.182 702.378 280.973 701.82 283.202C701.283 285.412 701.014 288.148 701.014 291.413C701.014 294.677 701.283 297.414 701.82 299.623C702.378 301.832 703.114 303.614 704.03 304.967C704.945 306.321 706.01 307.296 707.224 307.893C708.438 308.47 709.702 308.759 711.016 308.759C712.33 308.759 713.594 308.47 714.808 307.893C716.022 307.296 717.087 306.321 718.002 304.967C718.938 303.614 719.674 301.832 720.212 299.623C720.769 297.414 721.048 294.677 721.048 291.413ZM760.611 291.413C760.611 295.154 760.203 298.399 759.387 301.146C758.591 303.872 757.496 306.132 756.103 307.923C754.71 309.714 753.058 311.048 751.147 311.924C749.256 312.799 747.226 313.237 745.056 313.237C742.867 313.237 740.827 312.799 738.936 311.924C737.065 311.048 735.433 309.714 734.04 307.923C732.646 306.132 731.552 303.872 730.755 301.146C729.959 298.399 729.561 295.154 729.561 291.413C729.561 287.671 729.959 284.426 730.755 281.68C731.552 278.933 732.646 276.664 734.04 274.872C735.433 273.061 737.065 271.718 738.936 270.842C740.827 269.966 742.867 269.528 745.056 269.528C747.226 269.528 749.256 269.966 751.147 270.842C753.058 271.718 754.71 273.061 756.103 274.872C757.496 276.664 758.591 278.933 759.387 281.68C760.203 284.426 760.611 287.671 760.611 291.413ZM755.088 291.413C755.088 288.148 754.809 285.412 754.252 283.202C753.715 280.973 752.978 279.182 752.043 277.828C751.127 276.475 750.062 275.509 748.848 274.932C747.634 274.335 746.37 274.036 745.056 274.036C743.743 274.036 742.479 274.335 741.265 274.932C740.051 275.509 738.986 276.475 738.07 277.828C737.155 279.182 736.418 280.973 735.861 283.202C735.323 285.412 735.055 288.148 735.055 291.413C735.055 294.677 735.323 297.414 735.861 299.623C736.418 301.832 737.155 303.614 738.07 304.967C738.986 306.321 740.051 307.296 741.265 307.893C742.479 308.47 743.743 308.759 745.056 308.759C746.37 308.759 747.634 308.47 748.848 307.893C750.062 307.296 751.127 306.321 752.043 304.967C752.978 303.614 753.715 301.832 754.252 299.623C754.809 297.414 755.088 294.677 755.088 291.413ZM805.571 282.545V312.789H802.406C801.649 312.789 801.172 312.421 800.973 311.685L800.555 308.43C799.241 309.883 797.768 311.058 796.136 311.953C794.504 312.829 792.633 313.267 790.523 313.267C788.871 313.267 787.408 312.998 786.134 312.461C784.88 311.904 783.826 311.127 782.97 310.132C782.114 309.137 781.467 307.933 781.029 306.52C780.611 305.106 780.402 303.544 780.402 301.832V282.545H785.716V301.832C785.716 304.121 786.234 305.893 787.269 307.147C788.324 308.401 789.926 309.028 792.076 309.028C793.648 309.028 795.111 308.659 796.464 307.923C797.838 307.167 799.102 306.132 800.256 304.818V282.545H805.571ZM831.015 287.531C830.776 287.969 830.408 288.188 829.91 288.188C829.612 288.188 829.273 288.079 828.895 287.86C828.517 287.641 828.049 287.402 827.492 287.143C826.954 286.865 826.307 286.616 825.551 286.397C824.795 286.158 823.899 286.038 822.864 286.038C821.968 286.038 821.162 286.158 820.446 286.397C819.729 286.616 819.112 286.924 818.595 287.322C818.097 287.72 817.709 288.188 817.43 288.726C817.172 289.243 817.042 289.81 817.042 290.427C817.042 291.204 817.261 291.85 817.699 292.368C818.157 292.885 818.754 293.333 819.49 293.711C820.227 294.09 821.063 294.428 821.998 294.727C822.934 295.005 823.889 295.314 824.864 295.652C825.86 295.971 826.825 296.329 827.76 296.727C828.696 297.125 829.532 297.623 830.268 298.22C831.005 298.817 831.592 299.553 832.03 300.429C832.488 301.285 832.717 302.32 832.717 303.534C832.717 304.927 832.468 306.221 831.97 307.415C831.473 308.59 830.736 309.615 829.761 310.49C828.786 311.346 827.591 312.023 826.178 312.521C824.765 313.018 823.133 313.267 821.282 313.267C819.172 313.267 817.261 312.929 815.549 312.252C813.838 311.555 812.385 310.67 811.19 309.595L812.444 307.565C812.604 307.306 812.793 307.107 813.012 306.967C813.231 306.828 813.509 306.758 813.848 306.758C814.206 306.758 814.584 306.898 814.982 307.176C815.38 307.455 815.858 307.764 816.415 308.102C816.992 308.44 817.689 308.749 818.505 309.028C819.321 309.306 820.336 309.446 821.55 309.446C822.585 309.446 823.491 309.316 824.267 309.057C825.044 308.779 825.69 308.411 826.208 307.953C826.725 307.495 827.104 306.967 827.342 306.37C827.601 305.773 827.731 305.136 827.731 304.46C827.731 303.624 827.502 302.937 827.044 302.4C826.606 301.842 826.019 301.374 825.282 300.996C824.546 300.598 823.7 300.26 822.745 299.981C821.809 299.683 820.844 299.374 819.849 299.056C818.873 298.737 817.908 298.379 816.953 297.981C816.017 297.563 815.181 297.045 814.445 296.428C813.708 295.811 813.111 295.055 812.653 294.159C812.215 293.244 811.997 292.139 811.997 290.845C811.997 289.691 812.235 288.586 812.713 287.531C813.191 286.456 813.887 285.521 814.803 284.725C815.719 283.909 816.843 283.262 818.177 282.784C819.51 282.307 821.033 282.068 822.745 282.068C824.735 282.068 826.516 282.386 828.089 283.023C829.681 283.64 831.055 284.496 832.209 285.591L831.015 287.531ZM858.877 294.368C858.877 293.134 858.698 292.01 858.34 290.995C858.002 289.96 857.494 289.074 856.817 288.337C856.16 287.581 855.354 287.004 854.399 286.606C853.444 286.188 852.359 285.979 851.145 285.979C848.597 285.979 846.577 286.725 845.084 288.218C843.611 289.691 842.695 291.741 842.337 294.368H858.877ZM863.177 308.55C862.52 309.346 861.734 310.043 860.818 310.64C859.902 311.217 858.917 311.695 857.862 312.073C856.827 312.451 855.752 312.73 854.638 312.909C853.523 313.108 852.418 313.207 851.324 313.207C849.234 313.207 847.303 312.859 845.532 312.162C843.78 311.446 842.258 310.411 840.964 309.057C839.69 307.684 838.695 305.992 837.978 303.982C837.262 301.972 836.903 299.663 836.903 297.055C836.903 294.946 837.222 292.975 837.859 291.144C838.516 289.313 839.451 287.73 840.665 286.397C841.879 285.043 843.362 283.988 845.114 283.232C846.865 282.456 848.836 282.068 851.025 282.068C852.836 282.068 854.508 282.376 856.041 282.993C857.593 283.59 858.927 284.466 860.042 285.621C861.176 286.755 862.062 288.168 862.699 289.86C863.336 291.532 863.654 293.443 863.654 295.592C863.654 296.428 863.565 296.986 863.386 297.264C863.206 297.543 862.868 297.682 862.37 297.682H842.158C842.218 299.593 842.476 301.255 842.934 302.668C843.412 304.081 844.069 305.266 844.905 306.221C845.741 307.157 846.736 307.863 847.89 308.341C849.045 308.799 850.339 309.028 851.772 309.028C853.105 309.028 854.25 308.878 855.205 308.58C856.18 308.261 857.016 307.923 857.713 307.565C858.41 307.206 858.987 306.878 859.445 306.579C859.922 306.261 860.33 306.102 860.669 306.102C861.107 306.102 861.445 306.271 861.684 306.609L863.177 308.55ZM874.63 288.606C875.586 286.536 876.76 284.924 878.153 283.769C879.547 282.595 881.248 282.008 883.259 282.008C883.896 282.008 884.503 282.078 885.08 282.217C885.677 282.356 886.205 282.575 886.662 282.874L886.274 286.845C886.155 287.342 885.856 287.591 885.379 287.591C885.1 287.591 884.692 287.531 884.154 287.412C883.617 287.292 883.01 287.233 882.333 287.233C881.378 287.233 880.522 287.372 879.766 287.651C879.029 287.929 878.362 288.347 877.765 288.905C877.188 289.442 876.661 290.119 876.183 290.935C875.725 291.731 875.307 292.647 874.929 293.682V312.789H869.585V282.545H872.63C873.207 282.545 873.605 282.655 873.824 282.874C874.043 283.093 874.193 283.471 874.272 284.008L874.63 288.606ZM908.178 287.531C907.939 287.969 907.571 288.188 907.074 288.188C906.775 288.188 906.437 288.079 906.058 287.86C905.68 287.641 905.213 287.402 904.655 287.143C904.118 286.865 903.471 286.616 902.715 286.397C901.958 286.158 901.063 286.038 900.028 286.038C899.132 286.038 898.326 286.158 897.609 286.397C896.893 286.616 896.276 286.924 895.758 287.322C895.261 287.72 894.872 288.188 894.594 288.726C894.335 289.243 894.206 289.81 894.206 290.427C894.206 291.204 894.425 291.85 894.862 292.368C895.32 292.885 895.917 293.333 896.654 293.711C897.39 294.09 898.226 294.428 899.162 294.727C900.097 295.005 901.053 295.314 902.028 295.652C903.023 295.971 903.988 296.329 904.924 296.727C905.859 297.125 906.695 297.623 907.432 298.22C908.168 298.817 908.755 299.553 909.193 300.429C909.651 301.285 909.88 302.32 909.88 303.534C909.88 304.927 909.631 306.221 909.134 307.415C908.636 308.59 907.9 309.615 906.924 310.49C905.949 311.346 904.755 312.023 903.342 312.521C901.928 313.018 900.296 313.267 898.445 313.267C896.335 313.267 894.425 312.929 892.713 312.252C891.001 311.555 889.548 310.67 888.354 309.595L889.608 307.565C889.767 307.306 889.956 307.107 890.175 306.967C890.394 306.828 890.673 306.758 891.011 306.758C891.369 306.758 891.748 306.898 892.146 307.176C892.544 307.455 893.021 307.764 893.579 308.102C894.156 308.44 894.853 308.749 895.669 309.028C896.485 309.306 897.5 309.446 898.714 309.446C899.749 309.446 900.655 309.316 901.431 309.057C902.207 308.779 902.854 308.411 903.371 307.953C903.889 307.495 904.267 306.967 904.506 306.37C904.765 305.773 904.894 305.136 904.894 304.46C904.894 303.624 904.665 302.937 904.207 302.4C903.769 301.842 903.182 301.374 902.446 300.996C901.709 300.598 900.864 300.26 899.908 299.981C898.973 299.683 898.007 299.374 897.012 299.056C896.037 298.737 895.071 298.379 894.116 297.981C893.181 297.563 892.345 297.045 891.608 296.428C890.872 295.811 890.275 295.055 889.817 294.159C889.379 293.244 889.16 292.139 889.16 290.845C889.16 289.691 889.399 288.586 889.877 287.531C890.354 286.456 891.051 285.521 891.966 284.725C892.882 283.909 894.007 283.262 895.34 282.784C896.674 282.307 898.196 282.068 899.908 282.068C901.899 282.068 903.68 282.386 905.252 283.023C906.845 283.64 908.218 284.496 909.372 285.591L908.178 287.531Z" fill="black"/>
<defs>
<filter id="filter0_i_1925_2690" x="0" y="0" width="971.578" height="351.305" filterUnits="userSpaceOnUse" color-interpolation-filters="sRGB">
<feFlood flood-opacity="0" result="BackgroundImageFix"/>
<feBlend mode="normal" in="SourceGraphic" in2="BackgroundImageFix" result="shape"/>
<feColorMatrix in="SourceAlpha" type="matrix" values="0 0 0 0 0 0 0 0 0 0 0 0 0 0 0 0 0 0 127 0" result="hardAlpha"/>
<feOffset/>
<feGaussianBlur stdDeviation="7"/>
<feComposite in2="hardAlpha" operator="arithmetic" k2="-1" k3="1"/>
<feColorMatrix type="matrix" values="0 0 0 0 0 0 0 0 0 0 0 0 0 0 0 0 0 0 0.25 0"/>
<feBlend mode="normal" in2="shape" result="effect1_innerShadow_1925_2690"/>
</filter>
<filter id="filter1_i_1925_2690" x="25.5312" y="190.947" width="120.199" height="125.662" filterUnits="userSpaceOnUse" color-interpolation-filters="sRGB">
<feFlood flood-opacity="0" result="BackgroundImageFix"/>
<feBlend mode="normal" in="SourceGraphic" in2="BackgroundImageFix" result="shape"/>
<feColorMatrix in="SourceAlpha" type="matrix" values="0 0 0 0 0 0 0 0 0 0 0 0 0 0 0 0 0 0 127 0" result="hardAlpha"/>
<feOffset dy="5.46358"/>
<feGaussianBlur stdDeviation="2.73179"/>
<feComposite in2="hardAlpha" operator="arithmetic" k2="-1" k3="1"/>
<feColorMatrix type="matrix" values="0 0 0 0 0 0 0 0 0 0 0 0 0 0 0 0 0 0 0.25 0"/>
<feBlend mode="normal" in2="shape" result="effect1_innerShadow_1925_2690"/>
</filter>
<filter id="filter2_i_1925_2690" x="147.098" y="199.142" width="112.004" height="117.467" filterUnits="userSpaceOnUse" color-interpolation-filters="sRGB">
<feFlood flood-opacity="0" result="BackgroundImageFix"/>
<feBlend mode="normal" in="SourceGraphic" in2="BackgroundImageFix" result="shape"/>
<feColorMatrix in="SourceAlpha" type="matrix" values="0 0 0 0 0 0 0 0 0 0 0 0 0 0 0 0 0 0 127 0" result="hardAlpha"/>
<feOffset dy="5.46358"/>
<feGaussianBlur stdDeviation="2.73179"/>
<feComposite in2="hardAlpha" operator="arithmetic" k2="-1" k3="1"/>
<feColorMatrix type="matrix" values="0 0 0 0 0 0 0 0 0 0 0 0 0 0 0 0 0 0 0.25 0"/>
<feBlend mode="normal" in2="shape" result="effect1_innerShadow_1925_2690"/>
</filter>
<filter id="filter3_i_1925_2690" x="52.3086" y="54.0974" width="851.652" height="115.404" filterUnits="userSpaceOnUse" color-interpolation-filters="sRGB">
<feFlood flood-opacity="0" result="BackgroundImageFix"/>
<feBlend mode="normal" in="SourceGraphic" in2="BackgroundImageFix" result="shape"/>
<feColorMatrix in="SourceAlpha" type="matrix" values="0 0 0 0 0 0 0 0 0 0 0 0 0 0 0 0 0 0 127 0" result="hardAlpha"/>
<feOffset dy="5.46358"/>
<feGaussianBlur stdDeviation="2.73179"/>
<feComposite in2="hardAlpha" operator="arithmetic" k2="-1" k3="1"/>
<feColorMatrix type="matrix" values="0 0 0 0 0 0 0 0 0 0 0 0 0 0 0 0 0 0 0.25 0"/>
<feBlend mode="normal" in2="shape" result="effect1_innerShadow_1925_2690"/>
</filter>
<filter id="filter4_i_1925_2690" x="597.301" y="195.969" width="316.422" height="63.083" filterUnits="userSpaceOnUse" color-interpolation-filters="sRGB">
<feFlood flood-opacity="0" result="BackgroundImageFix"/>
<feBlend mode="normal" in="SourceGraphic" in2="BackgroundImageFix" result="shape"/>
<feColorMatrix in="SourceAlpha" type="matrix" values="0 0 0 0 0 0 0 0 0 0 0 0 0 0 0 0 0 0 127 0" result="hardAlpha"/>
<feOffset/>
<feGaussianBlur stdDeviation="5.68903"/>
<feComposite in2="hardAlpha" operator="arithmetic" k2="-1" k3="1"/>
<feColorMatrix type="matrix" values="0 0 0 0 0 0 0 0 0 0.65 0 0 0 0 1 0 0 0 0.82 0"/>
<feBlend mode="normal" in2="shape" result="effect1_innerShadow_1925_2690"/>
</filter>
<linearGradient id="paint0_linear_1925_2690" x1="47.4141" y1="110.076" x2="916.414" y2="110.076" gradientUnits="userSpaceOnUse">
<stop stop-color="#2F2F2F"/>
<stop offset="1" stop-color="#280000"/>
</linearGradient>
</defs>
</svg>
