<svg width="959" height="1154" viewBox="0 0 959 1154" fill="none" xmlns="http://www.w3.org/2000/svg">
<g clip-path="url(#clip0_1915_2546)">
<mask id="mask0_1915_2546" style="mask-type:luminance" maskUnits="userSpaceOnUse" x="0" y="0" width="1143" height="1154">
<path d="M1142.05 487.78L607.031 0L0.00125766 665.82L535.022 1153.6L1142.05 487.78Z" fill="white"/>
</mask>
<g mask="url(#mask0_1915_2546)">
<path d="M283.297 892.4C349.781 953.013 410.199 994.996 418.245 986.171C426.291 977.345 378.918 921.054 312.434 860.441C245.95 799.827 185.532 757.844 177.486 766.67C169.44 775.495 216.812 831.786 283.297 892.4Z" fill="#E5E7EB"/>
<path d="M689.965 626.608L676.82 664.735L722.287 731.359L747.345 655.27L711.816 580.458L689.965 626.608Z" fill="url(#paint0_linear_1915_2546)"/>
<path d="M760.341 630.375L718.958 648.499L654.061 621.297L732.181 560.527L760.341 630.375Z" fill="url(#paint1_linear_1915_2546)"/>
<path d="M686.076 639.233L659.786 715.488L718.398 743.984L707.923 593.084L686.076 639.233Z" fill="#0F172A"/>
<path d="M659.788 715.488L644.246 735.755L702.858 764.252L718.4 743.984L659.788 715.488Z" fill="#CBD5E1"/>
<path d="M644.246 735.755L622.132 775.087L671.774 804.787L702.858 764.252L644.246 735.755Z" fill="url(#paint2_linear_1915_2546)"/>
<path d="M644.246 735.755L637.674 754.819L671.774 804.787L702.858 764.252L644.246 735.755Z" fill="url(#paint3_linear_1915_2546)"/>
<path d="M680.188 765.476L696.118 797.228L698.746 835.712L671.837 839.323L683.193 805.078L664.646 785.744L680.188 765.476Z" fill="url(#paint4_linear_1915_2546)"/>
<path d="M672.692 786.317L648.147 854.757L623.912 842.604L648.38 794.312L672.692 786.317Z" fill="url(#paint5_linear_1915_2546)"/>
<path d="M656.508 781.234L631.964 849.676L607.729 837.522L632.196 789.23L656.508 781.234Z" fill="url(#paint6_linear_1915_2546)"/>
<path d="M646.434 774.369L621.89 842.811L597.655 830.658L622.122 782.365L646.434 774.369Z" fill="url(#paint7_linear_1915_2546)"/>
<path d="M640.049 756.681L616.417 814.053L594.102 804.231L617.405 763.658L640.049 756.681Z" fill="url(#paint8_linear_1915_2546)"/>
<path d="M672.422 775.61L689.106 801.755L684.4 837.638L671.842 839.323L678.831 805.664L664.651 785.743L672.422 775.61Z" fill="url(#paint9_linear_1915_2546)"/>
<path d="M660.537 790.314L635.223 848.276L623.913 842.604L648.38 794.312L660.537 790.314Z" fill="url(#paint10_linear_1915_2546)"/>
<path d="M644.349 785.232L619.035 843.194L607.725 837.522L632.193 789.23L644.349 785.232Z" fill="url(#paint11_linear_1915_2546)"/>
<path d="M634.279 778.367L608.965 836.329L597.655 830.657L622.123 782.365L634.279 778.367Z" fill="url(#paint12_linear_1915_2546)"/>
<path d="M628.738 760.168L604.527 808.813L594.113 804.229L617.416 763.657L628.738 760.168Z" fill="url(#paint13_linear_1915_2546)"/>
<path d="M370.606 662.309L442.936 703.868L296.014 838.154L247.965 769.962L370.606 662.309Z" fill="url(#paint14_linear_1915_2546)"/>
<path d="M403.425 680.038L453.558 706.818L296.012 838.152L268.644 801.008L403.425 680.038Z" fill="url(#paint15_linear_1915_2546)"/>
<path d="M456.309 716.06L504.358 784.252L408.468 916.294L336.138 874.735L456.309 716.06Z" fill="url(#paint16_linear_1915_2546)"/>
<path d="M451.07 706.438L476.986 747.106L368.956 892.464L336.134 874.733L451.07 706.438Z" fill="url(#paint17_linear_1915_2546)"/>
<path d="M204.238 791.058L247.965 769.962L296.015 838.153L278.421 870.883L204.238 791.058Z" fill="#1F2937"/>
<path d="M247.965 769.962L275.334 807.106L221.873 812.013L204.238 791.058L247.965 769.962Z" fill="#4B5563"/>
<path d="M336.137 874.736L408.467 916.294L391.491 961.78L305.168 895.271L336.137 874.736Z" fill="#111827"/>
<path d="M408.47 916.294L368.961 892.466L369.003 946.151L391.494 961.78L408.47 916.294Z" fill="#374151"/>
<path d="M622.035 468.458L648.117 492.238L608.66 535.516L591.272 519.663L622.035 468.458Z" fill="url(#paint18_linear_1915_2546)"/>
<path d="M648.117 492.239L674.199 516.018L626.048 551.37L608.66 535.517L648.117 492.239Z" fill="url(#paint19_linear_1915_2546)"/>
<path d="M642.634 471.389L649.939 490.242L625.658 516.874L625.04 504.119L598.289 479.73L642.634 471.389Z" fill="#CC0000"/>
<path d="M669.387 495.778L649.941 490.242L625.66 516.874L638.418 516.314L665.169 540.703L669.387 495.778Z" fill="#A10306"/>
<path d="M538.102 424.857L602.509 434.808L613.967 485.579L548.174 582.364L454.352 543.583L538.102 424.857Z" fill="url(#paint20_linear_1915_2546)"/>
<path d="M454.353 543.582L518.76 553.532L370.603 662.307L354.758 599.091L454.353 543.582Z" fill="url(#paint21_linear_1915_2546)"/>
<path d="M725.358 595.578L709.512 532.362L599.012 626.699L614.857 689.915L725.358 595.578Z" fill="url(#paint22_linear_1915_2546)"/>
<path d="M614.857 689.915L599.012 626.699L504.357 784.252L568.764 794.202L614.857 689.915Z" fill="url(#paint23_linear_1915_2546)"/>
<path d="M518.759 553.532L558.885 590.116L442.932 703.866L370.602 662.307L518.759 553.532Z" fill="url(#paint24_linear_1915_2546)"/>
<path d="M538.821 571.823L558.884 590.115L442.931 703.865L410.11 686.134L538.821 571.823Z" fill="url(#paint25_linear_1915_2546)"/>
<path d="M558.887 590.115L599.013 626.698L504.358 784.251L456.309 716.059L558.887 590.115Z" fill="url(#paint26_linear_1915_2546)"/>
<path d="M558.886 590.114L578.949 608.406L476.989 747.106L436.986 698.942L558.886 590.114Z" fill="url(#paint27_linear_1915_2546)"/>
<path d="M709.509 532.36L665.165 540.701L578.946 608.405L599.009 626.697L709.509 532.36Z" fill="url(#paint28_linear_1915_2546)"/>
<path d="M642.153 478.241L558.885 590.116L515.153 603.557L564.453 506.75L589.225 502.763L570.808 462.738L596.715 428.054L642.153 478.241Z" fill="url(#paint29_linear_1915_2546)"/>
<path d="M669.387 495.778L558.887 590.115L578.95 608.406L640.571 575.377L643.615 557.628L669.434 566.081L709.434 536.222L669.387 495.778Z" fill="url(#paint30_linear_1915_2546)"/>
<path d="M625.04 504.119L625.657 516.875L613.517 530.191L602.816 520.435L625.04 504.119Z" fill="#EF4444"/>
<path d="M625.66 516.874L638.418 516.313L624.22 539.946L613.52 530.191L625.66 516.874Z" fill="#DC2626"/>
<path d="M603.078 520.674L613.515 530.19L558.882 590.113L548.447 580.6L603.078 520.674Z" fill="#EF4444"/>
<path d="M613.52 530.191L623.955 539.705L569.322 599.628L558.887 590.115L613.52 530.191Z" fill="#DC2626"/>
<path d="M548.45 580.6L558.885 590.114L485.765 670.315L498.464 633.166L548.45 580.6Z" fill="#DC2626"/>
<path d="M558.887 590.115L569.322 599.628L515.948 658.171L486.519 669.491L558.887 590.115Z" fill="#B91C1C"/>
<path d="M504.973 638.501L515.673 648.257L486.042 670.012L504.973 638.501Z" fill="#991B1B"/>
<path d="M592.838 499.144L599.278 500.139L598.311 506.573L591.87 505.578L592.838 499.144Z" fill="#1D4ED8"/>
<path d="M455.304 427.634L470.333 500.714L543.096 485.592L537.059 420.124L455.304 427.634Z" fill="url(#paint31_linear_1915_2546)"/>
<path d="M462.615 430.974L470.129 467.514L550.407 488.931L553.382 416.592L462.615 430.974Z" fill="url(#paint32_linear_1915_2546)"/>
<path d="M462.254 466.519L405.264 536.636L352.366 507.287L535.017 451.397L462.254 466.519Z" fill="url(#paint33_linear_1915_2546)"/>
<path d="M498.299 471.321L402.598 537.594L433.756 501.579L352.363 507.288L456.051 433.303L535.014 451.398L498.299 471.321Z" fill="url(#paint34_linear_1915_2546)"/>
<path d="M405.262 536.637L386.885 544.939L333.987 515.59L352.364 507.288L405.262 536.637Z" fill="white"/>
<path d="M386.887 544.938L358.392 579.997L323.499 551.388L333.989 515.589L386.887 544.938Z" fill="url(#paint35_linear_1915_2546)"/>
<path d="M386.886 544.94L368.137 562.284L323.497 551.391L333.987 515.591L386.886 544.94Z" fill="url(#paint36_linear_1915_2546)"/>
<path d="M341.128 561.173L276.623 594.75L268.365 576.295L323.867 542.347L341.128 561.173Z" fill="url(#paint37_linear_1915_2546)"/>
<path d="M351.83 566.314L295.54 612.453L283.691 596.091L331.093 551.442L351.83 566.314Z" fill="url(#paint38_linear_1915_2546)"/>
<path d="M363.126 571.567L312.308 623.722L298.715 608.791L340.866 559.112L363.126 571.567Z" fill="url(#paint39_linear_1915_2546)"/>
<path d="M368.486 562.963L346.398 625.985L329.365 618.878L345.213 561.279L368.486 562.963Z" fill="url(#paint40_linear_1915_2546)"/>
<path d="M337.576 544.408L284.077 546.248L282.556 530.257L329.774 525.069L337.576 544.408Z" fill="url(#paint41_linear_1915_2546)"/>
<path d="M332.501 551.759L271.597 585.485L268.368 576.294L323.87 542.347L332.501 551.759Z" fill="url(#paint42_linear_1915_2546)"/>
<path d="M341.463 558.876L288.729 604.42L283.693 596.09L331.095 551.441L341.463 558.876Z" fill="url(#paint43_linear_1915_2546)"/>
<path d="M351.993 565.337L304.643 616.502L298.713 608.789L340.863 559.11L351.993 565.337Z" fill="url(#paint44_linear_1915_2546)"/>
<path d="M356.848 562.12L337.254 622.972L329.362 618.877L345.211 561.278L356.848 562.12Z" fill="url(#paint45_linear_1915_2546)"/>
<path d="M333.679 534.742L282.693 537.921L282.56 530.26L329.778 525.072L333.679 534.742Z" fill="url(#paint46_linear_1915_2546)"/>
<path d="M709.164 536.322L716.696 519.016L621.404 425.232L599.727 430.936L597.353 503.45L646.496 494.728L638.855 547.332L709.164 536.322Z" fill="white"/>
<path d="M638.355 335.319L649.595 350.931L643.828 376.861L621.579 387.764L627.599 347.116L638.355 335.319Z" fill="url(#paint47_linear_1915_2546)"/>
<path d="M788.692 477.749L805.839 483.989L785.856 503.485L757.126 512.371L752.481 496.492L788.692 477.749Z" fill="url(#paint48_linear_1915_2546)"/>
<path d="M640.227 500.895L611.737 427.369L668.582 399.944L708.156 409.879L679.684 457.617L640.227 500.895Z" fill="url(#paint49_linear_1915_2546)"/>
<path d="M611.738 427.37L649.59 350.927L668.583 399.944L611.738 427.37Z" fill="url(#paint50_linear_1915_2546)"/>
<path d="M649.588 350.928L708.842 373.248L719.141 414.339L668.582 399.945L649.588 350.928Z" fill="url(#paint51_linear_1915_2546)"/>
<path d="M635.38 337.971L656.272 357.018L728.154 283.892L683.917 260.894L635.38 337.971Z" fill="url(#paint52_linear_1915_2546)"/>
<path d="M649.588 350.927L721.413 289.609L774.38 353.749L719.14 414.339L708.841 373.248L649.588 350.927Z" fill="url(#paint53_linear_1915_2546)"/>
<path d="M721.413 289.609L751.454 326.508L708.841 373.248L649.588 350.927L721.413 289.609Z" fill="url(#paint54_linear_1915_2546)"/>
<path d="M640.228 500.895L679.685 457.616L723.684 422.664L738.135 463.355L716.067 522.486L640.228 500.895Z" fill="url(#paint55_linear_1915_2546)"/>
<path d="M716.066 522.486L738.135 463.355L788.694 477.749L716.066 522.486Z" fill="url(#paint56_linear_1915_2546)"/>
<path d="M788.696 477.75L738.137 463.355L719.143 414.338L761.008 420.806L788.696 477.75Z" fill="url(#paint57_linear_1915_2546)"/>
<path d="M788.695 477.75L761.007 420.806L719.142 414.338L774.382 353.749L843.132 400.578L788.695 477.75Z" fill="url(#paint58_linear_1915_2546)"/>
<path d="M843.132 400.579L788.695 477.751L761.007 420.807L803.621 374.067L843.132 400.579Z" fill="url(#paint59_linear_1915_2546)"/>
<path d="M726.229 389.1L727.032 405.682L679.684 457.616L670.187 433.107L726.229 389.1Z" fill="url(#paint60_linear_1915_2546)"/>
<path d="M727.034 405.683L743.62 404.953L704.966 464.814L679.686 457.616L727.034 405.683Z" fill="url(#paint61_linear_1915_2546)"/>
<path d="M670.188 433.107L679.684 457.616L704.964 464.813L663.901 474.927L670.188 433.107Z" fill="url(#paint62_linear_1915_2546)"/>
<path d="M698.543 332.156L725.428 372.518L732.998 357.229L702.957 320.33L698.543 332.156Z" fill="#F59E0B"/>
<path d="M760.206 404.225L802.873 427.275L814.242 421.79L774.731 395.278L760.206 404.225Z" fill="#B45309"/>
<path d="M691.455 357.395L709.324 383.198L699.373 383.635L681.503 357.833L691.455 357.395Z" fill="#374151"/>
<path d="M751.058 421.245L768.928 447.048L778.879 446.61L761.009 420.808L751.058 421.245Z" fill="#1F2937"/>
<path d="M645.257 467.442L677.813 487.613L661.549 494.975L644.161 479.122L645.257 467.442Z" fill="#9A3412"/>
<path d="M788.696 477.75L862.126 449.595L843.133 400.578L788.696 477.75Z" fill="url(#paint63_linear_1915_2546)"/>
<path d="M678.749 266.561L712.722 281.684L777.459 245.603L719.008 239.865L678.749 266.561Z" fill="url(#paint64_linear_1915_2546)"/>
<path d="M654.271 275.945L721.416 289.61L760.873 246.332L702.422 240.593L654.271 275.945Z" fill="url(#paint65_linear_1915_2546)"/>
<path d="M760.873 246.331L837.515 284.505L807.555 352.291L721.417 289.609L760.873 246.331Z" fill="url(#paint66_linear_1915_2546)"/>
<path d="M837.512 284.503L884.193 390.464L843.933 417.16L807.552 352.29L837.512 284.503Z" fill="url(#paint67_linear_1915_2546)"/>
<path d="M686.129 275.93L746.203 303.227L888.811 426.375L775.501 364.28L686.129 275.93Z" fill="url(#paint68_linear_1915_2546)"/>
<path d="M817.852 393.38L774.381 353.748L798.858 344.363L824.94 368.142L817.852 393.38Z" fill="url(#paint69_linear_1915_2546)"/>
<path d="M774.383 353.749L726.178 319.311L750.654 309.926L798.86 344.364L774.383 353.749Z" fill="url(#paint70_linear_1915_2546)"/>
<path d="M726.177 319.313L685.088 294.531L704.83 290.34L750.654 309.928L726.177 319.313Z" fill="url(#paint71_linear_1915_2546)"/>
<path d="M632.205 335.077L649.593 350.93L664.573 317.037L632.205 335.077Z" fill="url(#paint72_linear_1915_2546)"/>
<path d="M788.693 477.75L806.081 493.603L821.061 459.71L788.693 477.75Z" fill="url(#paint73_linear_1915_2546)"/>
</g>
<rect x="634.656" y="324.893" width="242.68" height="44.824" transform="rotate(32.9562 634.656 324.893)" fill="black"/>
<path d="M632.037 372.186C631.126 371.596 630.567 370.902 630.361 370.107C630.155 369.311 630.326 368.489 630.876 367.642L647.584 341.869C648.134 341.022 648.814 340.53 649.625 340.394C650.435 340.257 651.296 340.484 652.207 341.075L655.226 343.032C655.798 343.403 656.16 343.818 656.313 344.279C656.466 344.739 656.399 345.192 656.11 345.636C655.835 346.06 655.457 346.296 654.974 346.344C654.492 346.393 653.964 346.231 653.392 345.86L651.104 344.377L634.601 369.832L636.889 371.315C637.461 371.686 637.824 372.101 637.977 372.562C638.13 373.022 638.069 373.464 637.794 373.888C637.506 374.333 637.12 374.579 636.638 374.627C636.155 374.676 635.628 374.514 635.056 374.143L632.037 372.186ZM645.542 372.502C644.992 372.144 644.653 371.715 644.528 371.212C644.402 370.709 644.511 370.193 644.855 369.664L653.178 356.825C653.522 356.295 653.938 355.978 654.427 355.874C654.937 355.783 655.457 355.91 655.986 356.253C656.537 356.61 656.865 357.033 656.969 357.522C657.094 358.025 656.985 358.541 656.642 359.071L655.777 360.405C658.321 359.497 660.716 359.771 662.962 361.227L663.693 361.701C664.265 362.072 664.628 362.488 664.781 362.948C664.955 363.422 664.898 363.881 664.609 364.326C664.307 364.792 663.904 365.043 663.4 365.077C662.931 365.104 662.411 364.932 661.839 364.561L660.822 363.902C659.275 362.899 657.738 362.579 656.208 362.942C654.693 363.284 653.407 364.27 652.349 365.901L648.414 371.971C648.084 372.48 647.647 372.783 647.102 372.881C646.592 372.971 646.072 372.845 645.542 372.502ZM664.597 384.855C662.775 383.674 661.392 382.326 660.448 380.811C659.539 379.289 659.116 377.691 659.179 376.016C659.262 374.355 659.84 372.699 660.911 371.046C662.573 368.483 664.634 366.975 667.093 366.523C669.553 366.072 672.138 366.725 674.85 368.483C676.524 369.568 677.835 370.794 678.784 372.162C679.733 373.529 680.259 374.923 680.361 376.344C680.477 377.743 680.143 379.046 679.36 380.254C678.729 381.228 677.944 381.788 677.008 381.933C676.071 382.078 675.063 381.801 673.982 381.1L663.686 374.425C662.834 375.738 662.641 377.057 663.106 378.382C663.571 379.707 664.673 380.932 666.41 382.059C667.406 382.704 668.354 383.168 669.254 383.451C670.154 383.733 671.083 383.855 672.042 383.814C672.917 383.81 673.514 383.911 673.832 384.117C674.107 384.296 674.297 384.629 674.401 385.118C674.534 385.656 674.477 386.115 674.23 386.496C673.969 386.899 673.569 387.121 673.03 387.163C670.289 387.492 667.478 386.723 664.597 384.855ZM674.571 377.826C674.931 378.059 675.244 378.157 675.509 378.118C675.775 378.08 676.024 377.88 676.258 377.52C676.821 376.652 676.808 375.65 676.219 374.516C675.644 373.361 674.584 372.282 673.037 371.28C671.469 370.263 669.996 369.82 668.618 369.95C667.254 370.058 666.187 370.706 665.418 371.892L674.571 377.826ZM682.68 396.579C681.006 395.494 679.729 394.214 678.849 392.741C678.004 391.26 677.612 389.682 677.675 388.008C677.772 386.326 678.357 384.658 679.428 383.006C680.486 381.375 681.752 380.164 683.226 379.375C684.722 378.6 686.329 378.302 688.047 378.483C689.779 378.643 691.524 379.293 693.283 380.433C694.66 381.326 695.674 382.315 696.325 383.399C696.976 384.483 697.405 385.724 697.612 387.122L703.66 377.863C704.004 377.334 704.43 377.024 704.94 376.933C705.45 376.842 705.981 376.976 706.532 377.333C707.083 377.69 707.421 378.12 707.546 378.622C707.672 379.125 707.563 379.641 707.219 380.171L693.56 401.24C693.216 401.77 692.79 402.08 692.28 402.17C691.769 402.261 691.239 402.128 690.688 401.771C690.159 401.427 689.82 400.997 689.674 400.481C689.562 399.957 689.671 399.441 690.001 398.933L690.722 397.82C688.051 398.737 685.371 398.323 682.68 396.579ZM685.043 394.048C686.822 395.202 688.523 395.642 690.144 395.37C691.765 395.097 693.105 394.145 694.162 392.513C695.22 390.882 695.521 389.257 695.066 387.638C694.633 386.033 693.558 384.674 691.842 383.561C690.147 382.462 688.514 382.081 686.942 382.416C685.384 382.73 684.077 383.703 683.019 385.334C681.934 387.008 681.573 388.609 681.936 390.138C682.312 391.646 683.348 392.949 685.043 394.048ZM702.034 409.126C700.021 407.821 698.72 406.301 698.13 404.564C697.541 402.828 697.761 401.166 698.791 399.577C699.808 398.009 701.254 397.171 703.129 397.063C705.026 396.969 707.065 397.629 709.247 399.043C711.366 400.417 712.703 401.976 713.257 403.719L714.04 402.512C714.727 401.452 714.91 400.428 714.589 399.437C714.303 398.439 713.514 397.522 712.222 396.684C710.4 395.503 708.571 394.889 706.735 394.842C706.126 394.808 705.641 394.674 705.281 394.441C704.899 394.193 704.66 393.797 704.562 393.252C704.501 392.882 704.573 392.538 704.779 392.22C705.109 391.712 705.593 391.453 706.23 391.445C707.363 391.368 708.616 391.548 709.987 391.985C711.372 392.402 712.7 393.022 713.971 393.846C716.365 395.398 717.89 397.154 718.545 399.113C719.201 401.073 718.91 403.006 717.674 404.913L712.153 413.43C711.837 413.917 711.424 414.206 710.914 414.296C710.417 414.366 709.894 414.222 709.343 413.865C708.792 413.508 708.447 413.088 708.308 412.607C708.19 412.139 708.289 411.662 708.604 411.174L708.996 410.571C706.812 411.201 704.491 410.719 702.034 409.126ZM704.486 407.015C705.926 407.949 707.222 408.457 708.371 408.541C709.534 408.603 710.384 408.221 710.92 407.394C711.442 406.589 711.441 405.686 710.916 404.684C710.392 403.683 709.41 402.715 707.969 401.781C706.719 400.97 705.594 400.571 704.592 400.584C703.612 400.611 702.854 401.037 702.319 401.864C701.769 402.711 701.672 403.581 702.027 404.472C702.416 405.357 703.236 406.204 704.486 407.015ZM722.722 422.539C719.989 420.767 718.306 418.652 717.672 416.195C717.038 413.738 717.545 411.239 719.193 408.696C720.814 406.196 722.875 404.734 725.377 404.31C727.879 403.886 730.496 404.56 733.229 406.332C734.755 407.32 735.963 408.45 736.855 409.72C737.747 410.99 738.253 412.297 738.376 413.64C738.416 414.088 738.341 414.46 738.148 414.756C737.833 415.244 737.304 415.503 736.562 415.533C736.219 415.552 735.899 415.465 735.602 415.272C735.009 414.888 734.652 414.325 734.53 413.584C734.386 412.739 734.044 411.945 733.502 411.202C732.974 410.439 732.265 409.768 731.375 409.192C729.723 408.12 728.145 407.745 726.644 408.065C725.142 408.386 723.856 409.372 722.784 411.024C721.699 412.698 721.31 414.296 721.617 415.819C721.937 417.321 722.924 418.607 724.576 419.679C726.419 420.874 728.34 421.276 730.338 420.886C731.176 420.708 731.839 420.776 732.326 421.092C732.686 421.326 732.918 421.641 733.021 422.039C733.246 422.666 733.201 423.224 732.885 423.711C732.651 424.071 732.314 424.289 731.874 424.365C730.233 424.715 728.668 424.739 727.179 424.435C725.712 424.146 724.226 423.514 722.722 422.539ZM747.38 432.702C747.533 433.163 747.499 433.562 747.279 433.901C747.046 434.261 746.675 434.532 746.166 434.714C745.295 435.082 744.323 435.189 743.25 435.035C742.176 434.88 741.141 434.48 740.146 433.835C738.557 432.805 737.595 431.55 737.261 430.069C736.927 428.589 737.261 427.075 738.264 425.529L743.497 417.457L742.067 416.53C741.495 416.159 741.122 415.736 740.948 415.262C740.795 414.802 740.856 414.36 741.13 413.936C741.419 413.492 741.804 413.245 742.287 413.197C742.791 413.162 743.329 413.331 743.901 413.701L745.331 414.629L748.586 409.608C748.929 409.078 749.356 408.768 749.866 408.677C750.376 408.587 750.907 408.72 751.458 409.077C752.008 409.434 752.347 409.864 752.472 410.367C752.598 410.869 752.489 411.385 752.145 411.915L748.89 416.936L752.354 419.182C752.905 419.539 753.257 419.948 753.41 420.408C753.584 420.882 753.527 421.341 753.238 421.786C752.963 422.21 752.585 422.446 752.102 422.494C751.62 422.542 751.092 422.381 750.52 422.01L747.056 419.764L741.638 428.122C741.267 428.694 741.131 429.253 741.229 429.798C741.34 430.321 741.682 430.769 742.254 431.14C743.038 431.648 743.936 431.794 744.949 431.578C745.725 431.449 746.314 431.515 746.716 431.776C747.055 431.996 747.276 432.304 747.38 432.702ZM756.24 444.269C754.418 443.088 753.035 441.74 752.091 440.225C751.182 438.703 750.759 437.105 750.822 435.43C750.905 433.769 751.483 432.113 752.554 430.46C754.216 427.897 756.277 426.389 758.736 425.938C761.196 425.486 763.781 426.139 766.493 427.897C768.167 428.982 769.478 430.209 770.427 431.576C771.376 432.944 771.902 434.337 772.004 435.758C772.12 437.157 771.786 438.46 771.003 439.668C770.372 440.642 769.587 441.202 768.651 441.347C767.714 441.492 766.706 441.215 765.625 440.514L755.329 433.839C754.477 435.152 754.284 436.471 754.749 437.796C755.215 439.121 756.316 440.346 758.053 441.473C759.049 442.118 759.997 442.582 760.897 442.865C761.797 443.147 762.726 443.269 763.685 443.228C764.56 443.224 765.157 443.325 765.475 443.531C765.75 443.71 765.94 444.043 766.044 444.532C766.177 445.07 766.12 445.529 765.873 445.911C765.612 446.313 765.212 446.535 764.673 446.577C761.932 446.906 759.121 446.137 756.24 444.269ZM766.214 437.24C766.574 437.473 766.887 437.571 767.152 437.532C767.418 437.494 767.667 437.295 767.901 436.934C768.464 436.066 768.451 435.064 767.862 433.93C767.287 432.775 766.227 431.696 764.68 430.694C763.112 429.677 761.639 429.234 760.261 429.364C758.897 429.472 757.83 430.12 757.061 431.306L766.214 437.24ZM774.323 455.993C772.649 454.908 771.372 453.628 770.492 452.155C769.647 450.674 769.255 449.096 769.318 447.422C769.415 445.74 770 444.072 771.071 442.42C772.129 440.789 773.395 439.578 774.869 438.789C776.365 438.014 777.972 437.716 779.69 437.898C781.422 438.057 783.167 438.707 784.926 439.847C786.303 440.74 787.317 441.729 787.968 442.813C788.619 443.897 789.048 445.138 789.255 446.536L795.303 437.277C795.647 436.748 796.073 436.438 796.583 436.347C797.093 436.256 797.624 436.39 798.175 436.747C798.726 437.104 799.064 437.534 799.189 438.036C799.315 438.539 799.206 439.055 798.862 439.585L785.203 460.654C784.859 461.184 784.433 461.494 783.923 461.584C783.412 461.675 782.882 461.542 782.331 461.185C781.802 460.841 781.463 460.411 781.317 459.895C781.205 459.371 781.314 458.855 781.644 458.347L782.365 457.234C779.694 458.151 777.014 457.737 774.323 455.993ZM776.686 453.462C778.465 454.616 780.166 455.056 781.787 454.784C783.408 454.511 784.748 453.559 785.805 451.927C786.863 450.296 787.164 448.671 786.709 447.052C786.276 445.447 785.201 444.088 783.485 442.975C781.79 441.877 780.157 441.495 778.585 441.83C777.027 442.144 775.72 443.117 774.662 444.748C773.577 446.422 773.216 448.023 773.579 449.552C773.955 451.06 774.991 452.363 776.686 453.462ZM785.089 471.413C784.517 471.042 784.154 470.627 784.001 470.166C783.849 469.706 783.916 469.253 784.205 468.809C784.479 468.385 784.858 468.149 785.341 468.101C785.823 468.052 786.351 468.214 786.923 468.585L789.242 470.089L805.745 444.634L803.425 443.13C802.853 442.759 802.491 442.343 802.338 441.883C802.185 441.423 802.246 440.981 802.521 440.557C802.809 440.112 803.195 439.866 803.677 439.818C804.16 439.769 804.687 439.931 805.259 440.302L808.278 442.259C809.189 442.849 809.748 443.543 809.954 444.338C810.16 445.134 809.989 445.956 809.439 446.803L792.73 472.576C792.181 473.423 791.501 473.915 790.69 474.051C789.88 474.188 789.019 473.961 788.108 473.37L785.089 471.413Z" fill="white" fill-opacity="0.74"/>
</g>
<defs>
<linearGradient id="paint0_linear_1915_2546" x1="740.223" y1="728.952" x2="716.252" y2="550.353" gradientUnits="userSpaceOnUse">
<stop stop-color="#1C2538"/>
</linearGradient>
<linearGradient id="paint1_linear_1915_2546" x1="769.282" y1="614.635" x2="643.937" y2="543.427" gradientUnits="userSpaceOnUse">
<stop stop-color="#1E40AF"/>
</linearGradient>
<linearGradient id="paint2_linear_1915_2546" x1="707.652" y1="799.971" x2="698.064" y2="728.532" gradientUnits="userSpaceOnUse">
<stop stop-color="#FB923C"/>
</linearGradient>
<linearGradient id="paint3_linear_1915_2546" x1="707.652" y1="799.971" x2="698.064" y2="728.532" gradientUnits="userSpaceOnUse">
<stop stop-color="#F97316"/>
</linearGradient>
<linearGradient id="paint4_linear_1915_2546" x1="698.751" y1="835.711" x2="689.162" y2="764.272" gradientUnits="userSpaceOnUse">
<stop stop-color="#FB923C"/>
</linearGradient>
<linearGradient id="paint5_linear_1915_2546" x1="648.147" y1="854.757" x2="680.504" y2="790.234" gradientUnits="userSpaceOnUse">
<stop stop-color="#FB923C"/>
</linearGradient>
<linearGradient id="paint6_linear_1915_2546" x1="631.964" y1="849.676" x2="664.321" y2="785.152" gradientUnits="userSpaceOnUse">
<stop stop-color="#FB923C"/>
</linearGradient>
<linearGradient id="paint7_linear_1915_2546" x1="621.89" y1="842.811" x2="654.246" y2="778.287" gradientUnits="userSpaceOnUse">
<stop stop-color="#FB923C"/>
</linearGradient>
<linearGradient id="paint8_linear_1915_2546" x1="616.417" y1="814.053" x2="641.408" y2="757.279" gradientUnits="userSpaceOnUse">
<stop stop-color="#FB923C"/>
</linearGradient>
<linearGradient id="paint9_linear_1915_2546" x1="684.406" y1="837.637" x2="676.016" y2="775.127" gradientUnits="userSpaceOnUse">
<stop stop-color="#F97316"/>
</linearGradient>
<linearGradient id="paint10_linear_1915_2546" x1="635.223" y1="848.276" x2="663.534" y2="791.818" gradientUnits="userSpaceOnUse">
<stop stop-color="#F97316"/>
</linearGradient>
<linearGradient id="paint11_linear_1915_2546" x1="619.035" y1="843.194" x2="647.348" y2="786.736" gradientUnits="userSpaceOnUse">
<stop stop-color="#F97316"/>
</linearGradient>
<linearGradient id="paint12_linear_1915_2546" x1="608.965" y1="836.329" x2="637.277" y2="779.871" gradientUnits="userSpaceOnUse">
<stop stop-color="#F97316"/>
</linearGradient>
<linearGradient id="paint13_linear_1915_2546" x1="604.527" y1="808.813" x2="626.393" y2="759.136" gradientUnits="userSpaceOnUse">
<stop stop-color="#F97316"/>
</linearGradient>
<linearGradient id="paint14_linear_1915_2546" x1="369.371" y1="636.798" x2="235.825" y2="783.279" gradientUnits="userSpaceOnUse">
<stop stop-color="#1E40AF"/>
</linearGradient>
<linearGradient id="paint15_linear_1915_2546" x1="396.12" y1="661.185" x2="262.574" y2="807.666" gradientUnits="userSpaceOnUse">
<stop stop-color="#1E3A8A"/>
</linearGradient>
<linearGradient id="paint16_linear_1915_2546" x1="456.309" y1="716.06" x2="322.762" y2="862.54" gradientUnits="userSpaceOnUse">
<stop stop-color="#1E3A8A"/>
</linearGradient>
<linearGradient id="paint17_linear_1915_2546" x1="456.307" y1="716.06" x2="322.76" y2="862.54" gradientUnits="userSpaceOnUse">
<stop stop-color="#1C2538"/>
</linearGradient>
<linearGradient id="paint18_linear_1915_2546" x1="622.035" y1="468.458" x2="582.578" y2="511.737" gradientUnits="userSpaceOnUse">
<stop stop-color="#F97316"/>
</linearGradient>
<linearGradient id="paint19_linear_1915_2546" x1="648.117" y1="492.239" x2="608.66" y2="535.517" gradientUnits="userSpaceOnUse">
<stop stop-color="#EA580C"/>
</linearGradient>
<linearGradient id="paint20_linear_1915_2546" x1="562.383" y1="398.225" x2="440.977" y2="531.389" gradientUnits="userSpaceOnUse">
<stop stop-color="#2563EB"/>
</linearGradient>
<linearGradient id="paint21_linear_1915_2546" x1="451.883" y1="492.56" x2="330.477" y2="625.724" gradientUnits="userSpaceOnUse">
<stop stop-color="#1D4ED8"/>
</linearGradient>
<linearGradient id="paint22_linear_1915_2546" x1="696.137" y1="520.168" x2="574.731" y2="653.332" gradientUnits="userSpaceOnUse">
<stop stop-color="#1D4ED8"/>
</linearGradient>
<linearGradient id="paint23_linear_1915_2546" x1="599.012" y1="626.699" x2="477.606" y2="759.863" gradientUnits="userSpaceOnUse">
<stop stop-color="#1C2538"/>
</linearGradient>
<linearGradient id="paint24_linear_1915_2546" x1="492.008" y1="529.143" x2="370.602" y2="662.307" gradientUnits="userSpaceOnUse">
<stop stop-color="#2563EB"/>
</linearGradient>
<linearGradient id="paint25_linear_1915_2546" x1="525.445" y1="559.628" x2="410.11" y2="686.134" gradientUnits="userSpaceOnUse">
<stop stop-color="#1D4ED8"/>
</linearGradient>
<linearGradient id="paint26_linear_1915_2546" x1="558.887" y1="590.115" x2="437.481" y2="723.279" gradientUnits="userSpaceOnUse">
<stop stop-color="#1D4ED8"/>
</linearGradient>
<linearGradient id="paint27_linear_1915_2546" x1="558.888" y1="590.116" x2="443.553" y2="716.622" gradientUnits="userSpaceOnUse">
<stop stop-color="#1C2538"/>
</linearGradient>
<linearGradient id="paint28_linear_1915_2546" x1="676.07" y1="501.874" x2="578.946" y2="608.405" gradientUnits="userSpaceOnUse">
<stop stop-color="#1D4ED8"/>
</linearGradient>
<linearGradient id="paint29_linear_1915_2546" x1="622.571" y1="453.098" x2="525.446" y2="559.63" gradientUnits="userSpaceOnUse">
<stop stop-color="#1D4ED8"/>
</linearGradient>
<linearGradient id="paint30_linear_1915_2546" x1="656.012" y1="483.583" x2="558.887" y2="590.115" gradientUnits="userSpaceOnUse">
<stop stop-color="#1C2538"/>
</linearGradient>
<linearGradient id="paint31_linear_1915_2546" x1="452.328" y1="499.973" x2="596.366" y2="505.898" gradientUnits="userSpaceOnUse">
<stop stop-color="#1D4ED8"/>
</linearGradient>
<linearGradient id="paint32_linear_1915_2546" x1="460.383" y1="485.228" x2="604.421" y2="491.153" gradientUnits="userSpaceOnUse">
<stop stop-color="#2563EB"/>
</linearGradient>
<linearGradient id="paint33_linear_1915_2546" x1="351.25" y1="534.414" x2="531.298" y2="541.821" gradientUnits="userSpaceOnUse">
<stop stop-color="#1C2538"/>
</linearGradient>
<linearGradient id="paint34_linear_1915_2546" x1="352.363" y1="507.286" x2="532.411" y2="514.693" gradientUnits="userSpaceOnUse">
<stop stop-color="#1D4ED8"/>
</linearGradient>
<linearGradient id="paint35_linear_1915_2546" x1="322.383" y1="578.515" x2="385.4" y2="581.107" gradientUnits="userSpaceOnUse">
<stop stop-color="#FB923C"/>
</linearGradient>
<linearGradient id="paint36_linear_1915_2546" x1="323.125" y1="560.433" x2="386.142" y2="563.025" gradientUnits="userSpaceOnUse">
<stop stop-color="#F97316"/>
</linearGradient>
<linearGradient id="paint37_linear_1915_2546" x1="267.621" y1="594.38" x2="339.64" y2="597.342" gradientUnits="userSpaceOnUse">
<stop stop-color="#FB923C"/>
</linearGradient>
<linearGradient id="paint38_linear_1915_2546" x1="286.653" y1="613.944" x2="357.774" y2="602.145" gradientUnits="userSpaceOnUse">
<stop stop-color="#FB923C"/>
</linearGradient>
<linearGradient id="paint39_linear_1915_2546" x1="303.641" y1="626.199" x2="373.028" y2="606.567" gradientUnits="userSpaceOnUse">
<stop stop-color="#FB923C"/>
</linearGradient>
<linearGradient id="paint40_linear_1915_2546" x1="340.158" y1="631.408" x2="390.264" y2="588.245" gradientUnits="userSpaceOnUse">
<stop stop-color="#FB923C"/>
</linearGradient>
<linearGradient id="paint41_linear_1915_2546" x1="277.795" y1="542.899" x2="330.646" y2="562.806" gradientUnits="userSpaceOnUse">
<stop stop-color="#FB923C"/>
</linearGradient>
<linearGradient id="paint42_linear_1915_2546" x1="267.996" y1="585.337" x2="331.013" y2="587.929" gradientUnits="userSpaceOnUse">
<stop stop-color="#F97316"/>
</linearGradient>
<linearGradient id="paint43_linear_1915_2546" x1="285.174" y1="605.016" x2="347.405" y2="594.692" gradientUnits="userSpaceOnUse">
<stop stop-color="#F97316"/>
</linearGradient>
<linearGradient id="paint44_linear_1915_2546" x1="301.176" y1="617.493" x2="361.89" y2="600.315" gradientUnits="userSpaceOnUse">
<stop stop-color="#F97316"/>
</linearGradient>
<linearGradient id="paint45_linear_1915_2546" x1="334.759" y1="625.142" x2="378.602" y2="587.374" gradientUnits="userSpaceOnUse">
<stop stop-color="#F97316"/>
</linearGradient>
<linearGradient id="paint46_linear_1915_2546" x1="280.18" y1="536.581" x2="326.425" y2="554" gradientUnits="userSpaceOnUse">
<stop stop-color="#F97316"/>
</linearGradient>
<linearGradient id="paint47_linear_1915_2546" x1="635.684" y1="338.249" x2="604.119" y2="372.871" gradientUnits="userSpaceOnUse">
<stop stop-color="#EA580C"/>
</linearGradient>
<linearGradient id="paint48_linear_1915_2546" x1="788.692" y1="477.749" x2="757.126" y2="512.371" gradientUnits="userSpaceOnUse">
<stop stop-color="#C2410C"/>
</linearGradient>
<linearGradient id="paint49_linear_1915_2546" x1="651.194" y1="384.091" x2="588.063" y2="453.336" gradientUnits="userSpaceOnUse">
<stop stop-color="#F97316"/>
</linearGradient>
<linearGradient id="paint50_linear_1915_2546" x1="649.59" y1="350.927" x2="594.35" y2="411.517" gradientUnits="userSpaceOnUse">
<stop stop-color="#EA580C"/>
</linearGradient>
<linearGradient id="paint51_linear_1915_2546" x1="665.371" y1="333.616" x2="633.806" y2="368.239" gradientUnits="userSpaceOnUse">
<stop stop-color="#FB923C"/>
</linearGradient>
<linearGradient id="paint52_linear_1915_2546" x1="686.642" y1="257.905" x2="623.511" y2="327.15" gradientUnits="userSpaceOnUse">
<stop stop-color="#EAB308"/>
</linearGradient>
<linearGradient id="paint53_linear_1915_2546" x1="712.719" y1="281.682" x2="649.588" y2="350.927" gradientUnits="userSpaceOnUse">
<stop stop-color="#FB923C"/>
</linearGradient>
<linearGradient id="paint54_linear_1915_2546" x1="712.719" y1="281.682" x2="649.588" y2="350.927" gradientUnits="userSpaceOnUse">
<stop stop-color="#FDBA74"/>
</linearGradient>
<linearGradient id="paint55_linear_1915_2546" x1="703.359" y1="431.649" x2="640.228" y2="500.895" gradientUnits="userSpaceOnUse">
<stop stop-color="#EA580C"/>
</linearGradient>
<linearGradient id="paint56_linear_1915_2546" x1="753.918" y1="446.043" x2="698.678" y2="506.633" gradientUnits="userSpaceOnUse">
<stop stop-color="#C2410C"/>
</linearGradient>
<linearGradient id="paint57_linear_1915_2546" x1="734.926" y1="397.027" x2="703.36" y2="431.649" gradientUnits="userSpaceOnUse">
<stop stop-color="#F97316"/>
</linearGradient>
<linearGradient id="paint58_linear_1915_2546" x1="782.273" y1="345.093" x2="719.142" y2="414.338" gradientUnits="userSpaceOnUse">
<stop stop-color="#F97316"/>
</linearGradient>
<linearGradient id="paint59_linear_1915_2546" x1="808.355" y1="368.874" x2="745.224" y2="438.119" gradientUnits="userSpaceOnUse">
<stop stop-color="#EA580C"/>
</linearGradient>
<linearGradient id="paint60_linear_1915_2546" x1="717.535" y1="381.173" x2="662.295" y2="441.763" gradientUnits="userSpaceOnUse">
<stop stop-color="#FDBA74"/>
</linearGradient>
<linearGradient id="paint61_linear_1915_2546" x1="734.926" y1="397.027" x2="679.686" y2="457.616" gradientUnits="userSpaceOnUse">
<stop stop-color="#F97316"/>
</linearGradient>
<linearGradient id="paint62_linear_1915_2546" x1="670.188" y1="433.107" x2="646.513" y2="459.074" gradientUnits="userSpaceOnUse">
<stop stop-color="#EA580C"/>
</linearGradient>
<linearGradient id="paint63_linear_1915_2546" x1="843.133" y1="400.578" x2="780.002" y2="469.823" gradientUnits="userSpaceOnUse">
<stop stop-color="#CA8A04"/>
</linearGradient>
<linearGradient id="paint64_linear_1915_2546" x1="733.988" y1="205.971" x2="678.749" y2="266.561" gradientUnits="userSpaceOnUse">
<stop stop-color="#FACC15"/>
</linearGradient>
<linearGradient id="paint65_linear_1915_2546" x1="717.402" y1="206.7" x2="654.271" y2="275.945" gradientUnits="userSpaceOnUse">
<stop stop-color="#FACC15"/>
</linearGradient>
<linearGradient id="paint66_linear_1915_2546" x1="776.656" y1="229.02" x2="721.417" y2="289.609" gradientUnits="userSpaceOnUse">
<stop stop-color="#FEF08A"/>
</linearGradient>
<linearGradient id="paint67_linear_1915_2546" x1="837.512" y1="284.503" x2="774.381" y2="353.749" gradientUnits="userSpaceOnUse">
<stop stop-color="#FDE047"/>
</linearGradient>
<linearGradient id="paint68_linear_1915_2546" x1="703.227" y1="257.177" x2="682.709" y2="279.681" gradientUnits="userSpaceOnUse">
<stop stop-color="#FDE047"/>
</linearGradient>
<linearGradient id="paint69_linear_1915_2546" x1="817.852" y1="393.38" x2="833.634" y2="376.069" gradientUnits="userSpaceOnUse">
<stop stop-color="#FDE047"/>
</linearGradient>
<linearGradient id="paint70_linear_1915_2546" x1="778.342" y1="366.869" x2="798.86" y2="344.364" gradientUnits="userSpaceOnUse">
<stop stop-color="#FEF08A"/>
</linearGradient>
<linearGradient id="paint71_linear_1915_2546" x1="728.558" y1="334.164" x2="750.654" y2="309.928" gradientUnits="userSpaceOnUse">
<stop stop-color="#FACC15"/>
</linearGradient>
<linearGradient id="paint72_linear_1915_2546" x1="655.879" y1="309.11" x2="632.205" y2="335.077" gradientUnits="userSpaceOnUse">
<stop stop-color="#EAB308"/>
</linearGradient>
<linearGradient id="paint73_linear_1915_2546" x1="812.367" y1="451.783" x2="788.693" y2="477.75" gradientUnits="userSpaceOnUse">
<stop stop-color="#CA8A04"/>
</linearGradient>
<clipPath id="clip0_1915_2546">
<rect width="724" height="901" fill="white" transform="translate(607.031) rotate(42.3555)"/>
</clipPath>
</defs>
</svg>
