<svg width="724" height="662" viewBox="0 0 724 662" fill="none" xmlns="http://www.w3.org/2000/svg">
<g clip-path="url(#clip0_1900_602)">
<path d="M561.1 414.46L579.2 378.42L543 306.34L508.043 378.42L533.305 457.293L561.1 414.46Z" fill="url(#paint0_linear_1900_602)"/>
<path d="M488.701 360.4L524.901 387.43L533.305 457.293L441.879 419.386L488.701 360.4Z" fill="url(#paint1_linear_1900_602)"/>
<path d="M561.101 414.46L597.301 342.38L543.001 306.34L533.309 457.293L561.101 414.46Z" fill="#0F172A"/>
<path d="M597.3 342.38L615.4 324.36L561.1 288.32L543 306.34L597.3 342.38Z" fill="#CBD5E1"/>
<path d="M615.398 324.36L642.548 288.32L597.298 252.28L561.098 288.32L615.398 324.36Z" fill="url(#paint2_linear_1900_602)"/>
<path d="M615.398 324.36L624.448 306.34L597.298 252.28L561.098 288.32L615.398 324.36Z" fill="url(#paint3_linear_1900_602)"/>
<path d="M583.729 290.122L572.164 256.533L574.679 218.042H601.829L586.018 250.472L601.829 272.102L583.729 290.122Z" fill="url(#paint4_linear_1900_602)"/>
<path d="M593.932 270.464L627.363 205.896L649.766 221.166L619.092 265.774L593.932 270.464Z" fill="url(#paint5_linear_1900_602)"/>
<path d="M609.296 277.654L642.727 213.086L665.13 228.356L634.456 272.964L609.296 277.654Z" fill="url(#paint6_linear_1900_602)"/>
<path d="M618.366 285.798L651.797 221.23L674.2 236.499L643.526 281.108L618.366 285.798Z" fill="url(#paint7_linear_1900_602)"/>
<path d="M622.341 304.178L653.395 250.46L674.204 263.163L645.712 300.276L622.341 304.178Z" fill="url(#paint8_linear_1900_602)"/>
<path d="M592.777 281.112L579.719 252.98L589.157 218.042H601.827L590.423 250.472L601.827 272.102L592.777 281.112Z" fill="url(#paint9_linear_1900_602)"/>
<path d="M606.513 268.119L639.312 214.04L649.767 221.166L619.093 265.774L606.513 268.119Z" fill="url(#paint10_linear_1900_602)"/>
<path d="M621.877 275.309L654.676 221.23L665.131 228.356L634.457 272.964L621.877 275.309Z" fill="url(#paint11_linear_1900_602)"/>
<path d="M630.947 283.453L663.746 229.374L674.201 236.5L643.527 281.108L630.947 283.453Z" fill="url(#paint12_linear_1900_602)"/>
<path d="M634.018 302.227L664.484 257.235L674.196 263.164L645.703 300.276L634.018 302.227Z" fill="url(#paint13_linear_1900_602)"/>
<path d="M271.502 648.72L352.952 630.7L334.852 828.92L253.402 810.9L271.502 648.72Z" fill="url(#paint14_linear_1900_602)"/>
<path d="M307.702 639.71L362.791 625.724L334.852 828.92L289.602 819.91L307.702 639.71Z" fill="url(#paint15_linear_1900_602)"/>
<path d="M371.051 630.7L452.501 648.72L470.601 810.9L389.151 828.92L371.051 630.7Z" fill="url(#paint16_linear_1900_602)"/>
<path d="M360.699 627.118L407.249 639.71L425.349 819.91L389.149 828.92L360.699 627.118Z" fill="url(#paint17_linear_1900_602)"/>
<path d="M326.703 336.073H361.998V394.638H338.468L326.703 336.073Z" fill="url(#paint18_linear_1900_602)"/>
<path d="M362 336.073H397.295L385.53 394.638H362V336.073Z" fill="url(#paint19_linear_1900_602)"/>
<path d="M343.9 324.36L362 333.37V369.41L352.95 360.4H316.75L343.9 324.36Z" fill="#CC0000"/>
<path d="M380.1 324.36L362 333.37V369.41L371.05 360.4H407.25L380.1 324.36Z" fill="#A10306"/>
<path d="M235.301 360.4L289.601 324.36L332.274 354.159L348.861 470.008L253.401 504.56L235.301 360.4Z" fill="url(#paint20_linear_1900_602)"/>
<path d="M253.399 504.56L307.699 468.52L271.499 648.72L217.199 612.68L253.399 504.56Z" fill="url(#paint21_linear_1900_602)"/>
<path d="M488.701 360.4L434.401 324.36L416.301 468.52L470.601 504.56L488.701 360.4Z" fill="url(#paint22_linear_1900_602)"/>
<path d="M470.601 504.56L416.301 468.52L452.501 648.72L506.801 612.68L470.601 504.56Z" fill="url(#paint23_linear_1900_602)"/>
<path d="M307.7 468.52H362L352.95 630.7L271.5 648.72L307.7 468.52Z" fill="url(#paint24_linear_1900_602)"/>
<path d="M334.85 468.52H362L352.95 630.7L316.75 639.71L334.85 468.52Z" fill="url(#paint25_linear_1900_602)"/>
<path d="M362 468.52H416.3L452.5 648.72L371.05 630.7L362 468.52Z" fill="url(#paint26_linear_1900_602)"/>
<path d="M361.999 468.52H389.149L407.249 639.71L345.238 631.069L361.999 468.52Z" fill="url(#paint27_linear_1900_602)"/>
<path d="M434.398 324.36L407.248 360.4L389.148 468.52H416.298L434.398 324.36Z" fill="url(#paint28_linear_1900_602)"/>
<path d="M348.16 329.747L362 468.52L338.739 507.916L309.949 403.163L325.569 383.527L284.993 366.358L280.77 323.273L348.16 329.747Z" fill="url(#paint29_linear_1900_602)"/>
<path d="M380.1 324.36L362 468.52H389.15L412.434 402.596L402.725 387.43L427.5 376.281L436.942 327.266L380.1 324.36Z" fill="url(#paint30_linear_1900_602)"/>
<path d="M352.95 360.4L362 369.41V387.43H347.52L352.95 360.4Z" fill="#EF4444"/>
<path d="M362 369.41L371.05 360.4L376.48 387.43H362V369.41Z" fill="#DC2626"/>
<path d="M347.875 387.43H361.998V468.52H347.877L347.875 387.43Z" fill="#EF4444"/>
<path d="M362 387.43H376.121V468.52H362V387.43Z" fill="#DC2626"/>
<path d="M347.878 468.52H361.999V577.05L346.355 541.042L347.878 468.52Z" fill="#DC2626"/>
<path d="M362 468.52H376.121V547.741L362 575.934V468.52Z" fill="#B91C1C"/>
<path d="M354.758 540.6H369.238L361.998 576.64L354.758 540.6Z" fill="#991B1B"/>
<path d="M325.801 378.42L331.231 374.816L334.851 380.222L329.421 383.826L325.801 378.42Z" fill="#1D4ED8"/>
<path d="M235.298 360.4L162.898 378.42L180.998 450.5L246.162 441.777L235.298 360.4Z" fill="url(#paint31_linear_1900_602)"/>
<path d="M235.3 360.4L199.1 369.41L181 450.5H253.4L235.3 360.4Z" fill="url(#paint32_linear_1900_602)"/>
<path d="M162.9 378.42L90.5 324.36L117.65 270.3L181 450.5L162.9 378.42Z" fill="url(#paint33_linear_1900_602)"/>
<path d="M159.584 414.636L89.4336 321.738L126.699 351.39L117.649 270.3L195.834 370.86L180.999 450.5L159.584 414.636Z" fill="url(#paint34_linear_1900_602)"/>
<path d="M90.4992 324.36L81.4492 306.34L108.599 252.28L117.649 270.3L90.4992 324.36Z" fill="white"/>
<path d="M81.45 306.34L45.25 279.31L72.4 243.27L108.6 252.28L81.45 306.34Z" fill="url(#paint35_linear_1900_602)"/>
<path d="M81.4477 306.34L63.3477 288.32L72.3977 243.27L108.598 252.28L81.4477 306.34Z" fill="url(#paint36_linear_1900_602)"/>
<path d="M63.3484 261.29L27.1484 198.22L45.2484 189.21L81.4484 243.27L63.3484 261.29Z" fill="url(#paint37_linear_1900_602)"/>
<path d="M58.6516 272.194L10.2375 217.848L26.0987 205.336L72.6582 250.863L58.6516 272.194Z" fill="url(#paint38_linear_1900_602)"/>
<path d="M53.8673 283.693L-0.33304 235.062L14.0275 220.867L65.3969 260.94L53.8673 283.693Z" fill="url(#paint39_linear_1900_602)"/>
<path d="M62.684 288.695L-1.19228 269.216L5.20875 251.905L63.4101 265.373L62.684 288.695Z" fill="url(#paint40_linear_1900_602)"/>
<path d="M79.9529 257.052L75.9159 203.673L91.8303 201.497L98.9553 248.461L79.9529 257.052Z" fill="url(#paint41_linear_1900_602)"/>
<path d="M72.3992 252.28L36.1992 192.814L45.2492 189.21L81.4492 243.27L72.3992 252.28Z" fill="url(#paint42_linear_1900_602)"/>
<path d="M65.6564 261.528L17.984 210.71L26.1001 205.336L72.6596 250.863L65.6564 261.528Z" fill="url(#paint43_linear_1900_602)"/>
<path d="M59.634 272.316L6.566 227.109L14.0294 220.867L65.3987 260.94L59.634 272.316Z" fill="url(#paint44_linear_1900_602)"/>
<path d="M63.0481 277.035L1.44184 259.959L5.20984 251.905L63.4112 265.373L63.0481 277.035Z" fill="url(#paint45_linear_1900_602)"/>
<path d="M89.451 252.758L84.1789 201.945L91.8273 201.498L98.9522 248.462L89.451 252.758Z" fill="url(#paint46_linear_1900_602)"/>
<path d="M436.812 327.521L430.718 309.658L297.114 304.554L284.938 323.374L332.039 378.56L362.478 339.005L392.272 383.026L436.812 327.521Z" fill="white"/>
<path d="M249.059 226.691L267.883 230.656L281.091 253.703L271.996 276.75L249.059 242.656V226.691Z" fill="url(#paint47_linear_1900_602)"/>
<path d="M456.119 230.656L472.994 223.715L471.362 251.585L456.119 277.508L441.988 268.903L456.119 230.656Z" fill="url(#paint48_linear_1900_602)"/>
<path d="M362 347.786L291.41 312.647L314.94 254.082L350.878 234.761L362 289.221V347.786Z" fill="url(#paint49_linear_1900_602)"/>
<path d="M291.409 312.647L267.879 230.656L314.939 254.082L291.409 312.647Z" fill="url(#paint50_linear_1900_602)"/>
<path d="M267.879 230.656L326.704 207.23L361.999 230.656L314.939 254.082L267.879 230.656Z" fill="url(#paint51_linear_1900_602)"/>
<path d="M248.647 230.656H276.918L280.77 128.188L232.586 140.997L248.647 230.656Z" fill="url(#paint52_linear_1900_602)"/>
<path d="M267.879 230.656L279.644 136.952L361.999 148.665V230.656L326.704 207.23L267.879 230.656Z" fill="url(#paint53_linear_1900_602)"/>
<path d="M279.644 136.952L326.704 143.98V207.23L267.879 230.656L279.644 136.952Z" fill="url(#paint54_linear_1900_602)"/>
<path d="M362 347.786V289.221L370.966 233.748L409.06 254.082L432.59 312.647L362 347.786Z" fill="url(#paint55_linear_1900_602)"/>
<path d="M432.589 312.647L409.059 254.082L456.119 230.656L432.589 312.647Z" fill="url(#paint56_linear_1900_602)"/>
<path d="M456.12 230.656L409.06 254.082L362 230.656L397.295 207.23L456.12 230.656Z" fill="url(#paint57_linear_1900_602)"/>
<path d="M456.12 230.656L397.295 207.23L362 230.656V148.665L444.355 136.952L456.12 230.656Z" fill="url(#paint58_linear_1900_602)"/>
<path d="M444.357 136.952L456.122 230.656L397.297 207.23V143.98L444.357 136.952Z" fill="url(#paint59_linear_1900_602)"/>
<path d="M350.234 207.23L361.999 218.943V289.221L338.469 277.508L350.234 207.23Z" fill="url(#paint60_linear_1900_602)"/>
<path d="M362 218.943L373.765 207.23L385.53 277.508L362 289.221V218.943Z" fill="url(#paint61_linear_1900_602)"/>
<path d="M338.469 277.508L361.999 289.221L385.529 277.508L361.999 312.647L338.469 277.508Z" fill="url(#paint62_linear_1900_602)"/>
<path d="M291.409 183.804L338.469 195.517L333.763 179.119L286.703 172.091L291.409 183.804Z" fill="#F59E0B"/>
<path d="M385.531 195.517L432.591 183.804L437.297 172.091L390.237 179.119L385.531 195.517Z" fill="#B45309"/>
<path d="M303.176 207.23L333.765 214.258L326.706 221.286L296.117 214.258L303.176 207.23Z" fill="#374151"/>
<path d="M390.238 214.258L420.827 221.286L427.886 214.258L397.297 207.23L390.238 214.258Z" fill="#1F2937"/>
<path d="M343.18 319.675L380.828 312.647L373.769 329.045H350.239L343.18 319.675Z" fill="#9A3412"/>
<path d="M456.12 230.656L491.415 160.378L444.355 136.952L456.12 230.656Z" fill="url(#paint63_linear_1900_602)"/>
<path d="M232.586 148.665L267.881 136.952L291.411 66.6741L244.351 101.813L232.586 148.665Z" fill="url(#paint64_linear_1900_602)"/>
<path d="M220.82 172.091L279.645 136.952V78.3871L232.585 113.526L220.82 172.091Z" fill="url(#paint65_linear_1900_602)"/>
<path d="M279.645 78.3871L362 54.9611L385.53 125.239L279.645 136.952V78.3871Z" fill="url(#paint66_linear_1900_602)"/>
<path d="M362 54.9611L467.885 101.813L456.12 148.665L385.53 125.239L362 54.9611Z" fill="url(#paint67_linear_1900_602)"/>
<path d="M244.352 150.617L307.136 130.315L495.489 125.239L369.92 155.693L244.352 150.617Z" fill="url(#paint68_linear_1900_602)"/>
<path d="M420.824 148.665L361.999 148.665L373.764 125.239L409.059 125.239L420.824 148.665Z" fill="url(#paint69_linear_1900_602)"/>
<path d="M362.001 148.665L303.176 155.693L314.941 132.267L373.766 125.239L362.001 148.665Z" fill="url(#paint70_linear_1900_602)"/>
<path d="M303.176 155.693L256.116 165.063L267.881 148.665L314.941 132.267L303.176 155.693Z" fill="url(#paint71_linear_1900_602)"/>
<path d="M244.352 230.656H267.882L256.117 195.517L244.352 230.656Z" fill="url(#paint72_linear_1900_602)"/>
<path d="M456.121 230.656H479.651L467.886 195.517L456.121 230.656Z" fill="url(#paint73_linear_1900_602)"/>
<rect x="236.973" y="193.941" width="242.68" height="44.824" fill="black"/>
<path d="M260.504 235.048C259.419 235.048 258.573 234.77 257.967 234.214C257.361 233.659 257.058 232.876 257.058 231.866V201.151C257.058 200.141 257.361 199.359 257.967 198.803C258.573 198.248 259.419 197.97 260.504 197.97H264.102C264.784 197.97 265.314 198.121 265.693 198.424C266.072 198.727 266.261 199.144 266.261 199.674C266.261 200.179 266.072 200.583 265.693 200.886C265.314 201.189 264.784 201.341 264.102 201.341H261.375V231.677H264.102C264.784 231.677 265.314 231.828 265.693 232.131C266.072 232.434 266.261 232.838 266.261 233.343C266.261 233.873 266.072 234.29 265.693 234.593C265.314 234.896 264.784 235.048 264.102 235.048H260.504ZM272.008 227.965C271.352 227.965 270.834 227.789 270.455 227.435C270.077 227.082 269.887 226.589 269.887 225.958V210.657C269.887 210.026 270.064 209.534 270.417 209.18C270.796 208.827 271.301 208.65 271.932 208.65C272.589 208.65 273.094 208.827 273.447 209.18C273.826 209.534 274.015 210.026 274.015 210.657V212.248C275.657 210.102 277.815 209.029 280.492 209.029H281.363C282.044 209.029 282.575 209.18 282.953 209.483C283.357 209.786 283.559 210.203 283.559 210.733C283.559 211.289 283.357 211.718 282.953 212.021C282.575 212.299 282.044 212.437 281.363 212.437H280.151C278.308 212.437 276.843 213.005 275.758 214.142C274.672 215.253 274.129 216.78 274.129 218.724V225.958C274.129 226.564 273.927 227.056 273.523 227.435C273.144 227.789 272.639 227.965 272.008 227.965ZM294.717 227.965C292.545 227.965 290.652 227.587 289.036 226.829C287.445 226.046 286.221 224.935 285.362 223.496C284.529 222.057 284.112 220.353 284.112 218.383C284.112 215.328 285.021 212.942 286.839 211.225C288.657 209.509 291.182 208.65 294.414 208.65C296.408 208.65 298.176 208.966 299.716 209.597C301.256 210.228 302.455 211.112 303.314 212.248C304.172 213.359 304.602 214.634 304.602 216.073C304.602 217.235 304.248 218.131 303.541 218.762C302.834 219.393 301.837 219.709 300.549 219.709H288.278C288.278 221.274 288.834 222.486 289.945 223.345C291.056 224.203 292.646 224.632 294.717 224.632C295.903 224.632 296.951 224.506 297.86 224.254C298.769 224.001 299.615 223.597 300.398 223.042C301.13 222.562 301.685 222.322 302.064 222.322C302.392 222.322 302.733 222.499 303.087 222.852C303.491 223.231 303.693 223.648 303.693 224.102C303.693 224.582 303.478 224.986 303.049 225.314C300.928 227.082 298.151 227.965 294.717 227.965ZM299.262 216.641C299.691 216.641 300.006 216.553 300.208 216.376C300.41 216.199 300.511 215.896 300.511 215.467C300.511 214.432 299.956 213.599 298.845 212.968C297.734 212.311 296.257 211.983 294.414 211.983C292.545 211.983 291.068 212.412 289.983 213.271C288.897 214.104 288.354 215.227 288.354 216.641H299.262ZM316.268 227.965C314.273 227.965 312.506 227.587 310.965 226.829C309.451 226.046 308.264 224.935 307.405 223.496C306.572 222.032 306.156 220.315 306.156 218.346C306.156 216.401 306.56 214.697 307.368 213.233C308.201 211.768 309.387 210.645 310.928 209.862C312.468 209.054 314.286 208.65 316.381 208.65C318.022 208.65 319.411 208.928 320.547 209.483C321.683 210.039 322.719 210.847 323.653 211.907L323.691 200.848C323.691 200.217 323.88 199.725 324.259 199.371C324.638 199.018 325.155 198.841 325.812 198.841C326.468 198.841 326.986 199.018 327.364 199.371C327.743 199.725 327.933 200.217 327.933 200.848V225.958C327.933 226.589 327.743 227.082 327.364 227.435C326.986 227.789 326.468 227.965 325.812 227.965C325.18 227.965 324.663 227.789 324.259 227.435C323.88 227.056 323.691 226.564 323.691 225.958V224.632C321.949 226.854 319.474 227.965 316.268 227.965ZM316.874 224.557C318.995 224.557 320.661 224.001 321.873 222.89C323.085 221.779 323.691 220.252 323.691 218.308C323.691 216.364 323.06 214.836 321.797 213.725C320.56 212.614 318.919 212.059 316.874 212.059C314.854 212.059 313.276 212.627 312.14 213.763C311.003 214.874 310.435 216.401 310.435 218.346C310.435 220.34 311.003 221.88 312.14 222.966C313.276 224.026 314.854 224.557 316.874 224.557ZM339.333 227.965C336.934 227.965 335.015 227.397 333.576 226.261C332.137 225.125 331.417 223.61 331.417 221.716C331.417 219.848 332.175 218.358 333.69 217.247C335.23 216.136 337.3 215.581 339.901 215.581C342.426 215.581 344.395 216.162 345.809 217.323V215.884C345.809 214.621 345.405 213.662 344.597 213.005C343.814 212.324 342.653 211.983 341.113 211.983C338.942 211.983 337.073 212.463 335.508 213.422C334.977 213.725 334.498 213.877 334.069 213.877C333.614 213.877 333.197 213.675 332.819 213.271C332.566 212.993 332.44 212.665 332.44 212.286C332.44 211.68 332.705 211.2 333.235 210.847C334.144 210.165 335.293 209.635 336.682 209.256C338.07 208.852 339.522 208.65 341.037 208.65C343.89 208.65 346.125 209.294 347.741 210.582C349.357 211.869 350.165 213.649 350.165 215.922V226.072C350.165 226.652 349.975 227.119 349.596 227.473C349.218 227.801 348.7 227.965 348.044 227.965C347.387 227.965 346.87 227.801 346.491 227.473C346.137 227.145 345.961 226.69 345.961 226.11V225.39C344.471 227.107 342.262 227.965 339.333 227.965ZM340.242 224.86C341.959 224.86 343.322 224.582 344.332 224.026C345.342 223.446 345.847 222.663 345.847 221.678C345.847 220.719 345.355 219.961 344.37 219.406C343.385 218.851 342.034 218.573 340.318 218.573C338.828 218.573 337.666 218.851 336.833 219.406C336.025 219.961 335.621 220.732 335.621 221.716C335.621 222.726 336.013 223.509 336.795 224.064C337.603 224.595 338.752 224.86 340.242 224.86ZM363.988 227.965C360.731 227.965 358.169 227.107 356.3 225.39C354.432 223.673 353.498 221.3 353.498 218.27C353.498 215.29 354.432 212.942 356.3 211.225C358.169 209.509 360.731 208.65 363.988 208.65C365.806 208.65 367.435 208.94 368.874 209.521C370.313 210.102 371.449 210.922 372.283 211.983C372.56 212.336 372.699 212.69 372.699 213.043C372.699 213.624 372.396 214.129 371.79 214.558C371.513 214.76 371.197 214.861 370.843 214.861C370.136 214.861 369.531 214.584 369.026 214.028C368.445 213.397 367.725 212.917 366.867 212.589C366.008 212.235 365.049 212.059 363.988 212.059C362.019 212.059 360.491 212.601 359.406 213.687C358.32 214.773 357.777 216.3 357.777 218.27C357.777 220.264 358.32 221.817 359.406 222.928C360.491 224.014 362.019 224.557 363.988 224.557C366.185 224.557 368.016 223.85 369.48 222.436C370.086 221.83 370.679 221.527 371.26 221.527C371.689 221.527 372.055 221.666 372.358 221.943C372.889 222.347 373.154 222.84 373.154 223.421C373.154 223.85 372.99 224.216 372.661 224.519C371.475 225.706 370.174 226.577 368.76 227.132C367.372 227.688 365.781 227.965 363.988 227.965ZM390.207 223.08C390.586 223.383 390.776 223.736 390.776 224.14C390.776 224.569 390.611 224.999 390.283 225.428C389.753 226.21 388.996 226.829 388.011 227.284C387.026 227.738 385.94 227.965 384.754 227.965C382.86 227.965 381.37 227.435 380.285 226.375C379.199 225.314 378.656 223.862 378.656 222.019V212.4H376.952C376.27 212.4 375.727 212.248 375.323 211.945C374.945 211.642 374.755 211.238 374.755 210.733C374.755 210.203 374.945 209.786 375.323 209.483C375.727 209.18 376.27 209.029 376.952 209.029H378.656V203.045C378.656 202.414 378.846 201.921 379.224 201.568C379.603 201.214 380.121 201.038 380.777 201.038C381.434 201.038 381.951 201.214 382.33 201.568C382.709 201.921 382.898 202.414 382.898 203.045V209.029H387.026C387.683 209.029 388.2 209.18 388.579 209.483C388.983 209.786 389.185 210.203 389.185 210.733C389.185 211.238 388.996 211.642 388.617 211.945C388.238 212.248 387.708 212.4 387.026 212.4H382.898V222.36C382.898 223.042 383.087 223.585 383.466 223.989C383.845 224.367 384.375 224.557 385.057 224.557C385.991 224.557 386.824 224.191 387.556 223.458C388.137 222.928 388.667 222.663 389.147 222.663C389.551 222.663 389.904 222.802 390.207 223.08ZM403.934 227.965C401.763 227.965 399.869 227.587 398.253 226.829C396.663 226.046 395.438 224.935 394.58 223.496C393.747 222.057 393.33 220.353 393.33 218.383C393.33 215.328 394.239 212.942 396.057 211.225C397.875 209.509 400.4 208.65 403.631 208.65C405.626 208.65 407.393 208.966 408.934 209.597C410.474 210.228 411.673 211.112 412.531 212.248C413.39 213.359 413.819 214.634 413.819 216.073C413.819 217.235 413.466 218.131 412.759 218.762C412.052 219.393 411.054 219.709 409.767 219.709H397.496C397.496 221.274 398.051 222.486 399.162 223.345C400.273 224.203 401.864 224.632 403.934 224.632C405.121 224.632 406.169 224.506 407.078 224.254C407.987 224.001 408.833 223.597 409.615 223.042C410.347 222.562 410.903 222.322 411.282 222.322C411.61 222.322 411.951 222.499 412.304 222.852C412.708 223.231 412.91 223.648 412.91 224.102C412.91 224.582 412.696 224.986 412.266 225.314C410.145 227.082 407.368 227.965 403.934 227.965ZM408.479 216.641C408.908 216.641 409.224 216.553 409.426 216.376C409.628 216.199 409.729 215.896 409.729 215.467C409.729 214.432 409.173 213.599 408.062 212.968C406.952 212.311 405.474 211.983 403.631 211.983C401.763 211.983 400.286 212.412 399.2 213.271C398.115 214.104 397.572 215.227 397.572 216.641H408.479ZM425.485 227.965C423.491 227.965 421.723 227.587 420.183 226.829C418.668 226.046 417.481 224.935 416.623 223.496C415.79 222.032 415.373 220.315 415.373 218.346C415.373 216.401 415.777 214.697 416.585 213.233C417.418 211.768 418.605 210.645 420.145 209.862C421.685 209.054 423.503 208.65 425.599 208.65C427.24 208.65 428.629 208.928 429.765 209.483C430.901 210.039 431.936 210.847 432.87 211.907L432.908 200.848C432.908 200.217 433.098 199.725 433.476 199.371C433.855 199.018 434.373 198.841 435.029 198.841C435.686 198.841 436.203 199.018 436.582 199.371C436.961 199.725 437.15 200.217 437.15 200.848V225.958C437.15 226.589 436.961 227.082 436.582 227.435C436.203 227.789 435.686 227.965 435.029 227.965C434.398 227.965 433.88 227.789 433.476 227.435C433.098 227.056 432.908 226.564 432.908 225.958V224.632C431.166 226.854 428.692 227.965 425.485 227.965ZM426.091 224.557C428.212 224.557 429.878 224.001 431.09 222.89C432.302 221.779 432.908 220.252 432.908 218.308C432.908 216.364 432.277 214.836 431.015 213.725C429.777 212.614 428.136 212.059 426.091 212.059C424.071 212.059 422.493 212.627 421.357 213.763C420.221 214.874 419.653 216.401 419.653 218.346C419.653 220.34 420.221 221.88 421.357 222.966C422.493 224.026 424.071 224.557 426.091 224.557ZM442.907 235.048C442.226 235.048 441.695 234.896 441.317 234.593C440.938 234.29 440.749 233.873 440.749 233.343C440.749 232.838 440.938 232.434 441.317 232.131C441.695 231.828 442.226 231.677 442.907 231.677H445.672V201.341H442.907C442.226 201.341 441.695 201.189 441.317 200.886C440.938 200.583 440.749 200.179 440.749 199.674C440.749 199.144 440.938 198.727 441.317 198.424C441.695 198.121 442.226 197.97 442.907 197.97H446.505C447.591 197.97 448.437 198.248 449.043 198.803C449.649 199.359 449.952 200.141 449.952 201.151V231.866C449.952 232.876 449.649 233.659 449.043 234.214C448.437 234.77 447.591 235.048 446.505 235.048H442.907Z" fill="white" fill-opacity="0.74"/>
</g>
<defs>
<linearGradient id="paint0_linear_1900_602" x1="524.903" y1="306.34" x2="524.903" y2="486.54" gradientUnits="userSpaceOnUse">
<stop stop-color="#1C2538"/>
</linearGradient>
<linearGradient id="paint1_linear_1900_602" x1="470.599" y1="360.4" x2="470.599" y2="504.56" gradientUnits="userSpaceOnUse">
<stop stop-color="#1E40AF"/>
</linearGradient>
<linearGradient id="paint2_linear_1900_602" x1="561.098" y1="252.28" x2="561.098" y2="324.36" gradientUnits="userSpaceOnUse">
<stop stop-color="#FB923C"/>
</linearGradient>
<linearGradient id="paint3_linear_1900_602" x1="561.098" y1="252.28" x2="561.098" y2="324.36" gradientUnits="userSpaceOnUse">
<stop stop-color="#F97316"/>
</linearGradient>
<linearGradient id="paint4_linear_1900_602" x1="574.674" y1="218.042" x2="574.674" y2="290.122" gradientUnits="userSpaceOnUse">
<stop stop-color="#FB923C"/>
</linearGradient>
<linearGradient id="paint5_linear_1900_602" x1="627.363" y1="205.896" x2="586.711" y2="265.542" gradientUnits="userSpaceOnUse">
<stop stop-color="#FB923C"/>
</linearGradient>
<linearGradient id="paint6_linear_1900_602" x1="642.727" y1="213.086" x2="602.074" y2="272.732" gradientUnits="userSpaceOnUse">
<stop stop-color="#FB923C"/>
</linearGradient>
<linearGradient id="paint7_linear_1900_602" x1="651.797" y1="221.23" x2="611.145" y2="280.876" gradientUnits="userSpaceOnUse">
<stop stop-color="#FB923C"/>
</linearGradient>
<linearGradient id="paint8_linear_1900_602" x1="653.395" y1="250.46" x2="621.074" y2="303.405" gradientUnits="userSpaceOnUse">
<stop stop-color="#FB923C"/>
</linearGradient>
<linearGradient id="paint9_linear_1900_602" x1="589.151" y1="218.042" x2="589.151" y2="281.112" gradientUnits="userSpaceOnUse">
<stop stop-color="#F97316"/>
</linearGradient>
<linearGradient id="paint10_linear_1900_602" x1="639.312" y1="214.04" x2="603.742" y2="266.23" gradientUnits="userSpaceOnUse">
<stop stop-color="#F97316"/>
</linearGradient>
<linearGradient id="paint11_linear_1900_602" x1="654.676" y1="221.23" x2="619.105" y2="273.42" gradientUnits="userSpaceOnUse">
<stop stop-color="#F97316"/>
</linearGradient>
<linearGradient id="paint12_linear_1900_602" x1="663.746" y1="229.374" x2="628.175" y2="281.564" gradientUnits="userSpaceOnUse">
<stop stop-color="#F97316"/>
</linearGradient>
<linearGradient id="paint13_linear_1900_602" x1="664.484" y1="257.235" x2="636.204" y2="303.562" gradientUnits="userSpaceOnUse">
<stop stop-color="#F97316"/>
</linearGradient>
<linearGradient id="paint14_linear_1900_602" x1="253.402" y1="630.7" x2="253.402" y2="828.92" gradientUnits="userSpaceOnUse">
<stop stop-color="#1E40AF"/>
</linearGradient>
<linearGradient id="paint15_linear_1900_602" x1="289.602" y1="630.7" x2="289.602" y2="828.92" gradientUnits="userSpaceOnUse">
<stop stop-color="#1E3A8A"/>
</linearGradient>
<linearGradient id="paint16_linear_1900_602" x1="371.051" y1="630.7" x2="371.051" y2="828.92" gradientUnits="userSpaceOnUse">
<stop stop-color="#1E3A8A"/>
</linearGradient>
<linearGradient id="paint17_linear_1900_602" x1="371.051" y1="630.7" x2="371.051" y2="828.92" gradientUnits="userSpaceOnUse">
<stop stop-color="#1C2538"/>
</linearGradient>
<linearGradient id="paint18_linear_1900_602" x1="326.703" y1="336.073" x2="326.703" y2="394.638" gradientUnits="userSpaceOnUse">
<stop stop-color="#F97316"/>
</linearGradient>
<linearGradient id="paint19_linear_1900_602" x1="362" y1="336.073" x2="362" y2="394.638" gradientUnits="userSpaceOnUse">
<stop stop-color="#EA580C"/>
</linearGradient>
<linearGradient id="paint20_linear_1900_602" x1="235.301" y1="324.36" x2="235.301" y2="504.56" gradientUnits="userSpaceOnUse">
<stop stop-color="#2563EB"/>
</linearGradient>
<linearGradient id="paint21_linear_1900_602" x1="217.199" y1="468.52" x2="217.199" y2="648.72" gradientUnits="userSpaceOnUse">
<stop stop-color="#1D4ED8"/>
</linearGradient>
<linearGradient id="paint22_linear_1900_602" x1="416.301" y1="324.36" x2="416.301" y2="504.56" gradientUnits="userSpaceOnUse">
<stop stop-color="#1D4ED8"/>
</linearGradient>
<linearGradient id="paint23_linear_1900_602" x1="416.301" y1="468.52" x2="416.301" y2="648.72" gradientUnits="userSpaceOnUse">
<stop stop-color="#1C2538"/>
</linearGradient>
<linearGradient id="paint24_linear_1900_602" x1="271.5" y1="468.52" x2="271.5" y2="648.72" gradientUnits="userSpaceOnUse">
<stop stop-color="#2563EB"/>
</linearGradient>
<linearGradient id="paint25_linear_1900_602" x1="316.75" y1="468.52" x2="316.75" y2="639.71" gradientUnits="userSpaceOnUse">
<stop stop-color="#1D4ED8"/>
</linearGradient>
<linearGradient id="paint26_linear_1900_602" x1="362" y1="468.52" x2="362" y2="648.72" gradientUnits="userSpaceOnUse">
<stop stop-color="#1D4ED8"/>
</linearGradient>
<linearGradient id="paint27_linear_1900_602" x1="362.002" y1="468.52" x2="362.002" y2="639.71" gradientUnits="userSpaceOnUse">
<stop stop-color="#1C2538"/>
</linearGradient>
<linearGradient id="paint28_linear_1900_602" x1="389.148" y1="324.36" x2="389.148" y2="468.52" gradientUnits="userSpaceOnUse">
<stop stop-color="#1D4ED8"/>
</linearGradient>
<linearGradient id="paint29_linear_1900_602" x1="316.75" y1="324.36" x2="316.75" y2="468.52" gradientUnits="userSpaceOnUse">
<stop stop-color="#1D4ED8"/>
</linearGradient>
<linearGradient id="paint30_linear_1900_602" x1="362" y1="324.36" x2="362" y2="468.52" gradientUnits="userSpaceOnUse">
<stop stop-color="#1C2538"/>
</linearGradient>
<linearGradient id="paint31_linear_1900_602" x1="162.898" y1="360.4" x2="162.898" y2="504.56" gradientUnits="userSpaceOnUse">
<stop stop-color="#1D4ED8"/>
</linearGradient>
<linearGradient id="paint32_linear_1900_602" x1="181" y1="360.4" x2="181" y2="504.56" gradientUnits="userSpaceOnUse">
<stop stop-color="#2563EB"/>
</linearGradient>
<linearGradient id="paint33_linear_1900_602" x1="90.5" y1="270.3" x2="90.5" y2="450.5" gradientUnits="userSpaceOnUse">
<stop stop-color="#1C2538"/>
</linearGradient>
<linearGradient id="paint34_linear_1900_602" x1="117.651" y1="270.3" x2="117.651" y2="450.5" gradientUnits="userSpaceOnUse">
<stop stop-color="#1D4ED8"/>
</linearGradient>
<linearGradient id="paint35_linear_1900_602" x1="45.25" y1="243.27" x2="45.25" y2="306.34" gradientUnits="userSpaceOnUse">
<stop stop-color="#FB923C"/>
</linearGradient>
<linearGradient id="paint36_linear_1900_602" x1="63.3477" y1="243.27" x2="63.3477" y2="306.34" gradientUnits="userSpaceOnUse">
<stop stop-color="#F97316"/>
</linearGradient>
<linearGradient id="paint37_linear_1900_602" x1="27.1484" y1="189.21" x2="27.1484" y2="261.29" gradientUnits="userSpaceOnUse">
<stop stop-color="#FB923C"/>
</linearGradient>
<linearGradient id="paint38_linear_1900_602" x1="8.38281" y1="209.029" x2="23.0945" y2="279.606" gradientUnits="userSpaceOnUse">
<stop stop-color="#FB923C"/>
</linearGradient>
<linearGradient id="paint39_linear_1900_602" x1="-3.16406" y1="226.505" x2="19.3038" y2="295.026" gradientUnits="userSpaceOnUse">
<stop stop-color="#FB923C"/>
</linearGradient>
<linearGradient id="paint40_linear_1900_602" x1="-6.86719" y1="263.204" x2="38.3186" y2="311.494" gradientUnits="userSpaceOnUse">
<stop stop-color="#FB923C"/>
</linearGradient>
<linearGradient id="paint41_linear_1900_602" x1="79.0039" y1="197.259" x2="61.2855" y2="250.884" gradientUnits="userSpaceOnUse">
<stop stop-color="#FB923C"/>
</linearGradient>
<linearGradient id="paint42_linear_1900_602" x1="36.1992" y1="189.21" x2="36.1992" y2="252.28" gradientUnits="userSpaceOnUse">
<stop stop-color="#F97316"/>
</linearGradient>
<linearGradient id="paint43_linear_1900_602" x1="17.2422" y1="207.183" x2="30.1149" y2="268.937" gradientUnits="userSpaceOnUse">
<stop stop-color="#F97316"/>
</linearGradient>
<linearGradient id="paint44_linear_1900_602" x1="5.43359" y1="223.686" x2="25.0929" y2="283.642" gradientUnits="userSpaceOnUse">
<stop stop-color="#F97316"/>
</linearGradient>
<linearGradient id="paint45_linear_1900_602" x1="-0.828125" y1="257.555" x2="38.7094" y2="299.809" gradientUnits="userSpaceOnUse">
<stop stop-color="#F97316"/>
</linearGradient>
<linearGradient id="paint46_linear_1900_602" x1="85.4141" y1="199.379" x2="69.9105" y2="246.301" gradientUnits="userSpaceOnUse">
<stop stop-color="#F97316"/>
</linearGradient>
<linearGradient id="paint47_linear_1900_602" x1="249.059" y1="230.656" x2="249.059" y2="277.508" gradientUnits="userSpaceOnUse">
<stop stop-color="#EA580C"/>
</linearGradient>
<linearGradient id="paint48_linear_1900_602" x1="456.119" y1="230.656" x2="456.119" y2="277.508" gradientUnits="userSpaceOnUse">
<stop stop-color="#C2410C"/>
</linearGradient>
<linearGradient id="paint49_linear_1900_602" x1="291.41" y1="254.082" x2="291.41" y2="347.786" gradientUnits="userSpaceOnUse">
<stop stop-color="#F97316"/>
</linearGradient>
<linearGradient id="paint50_linear_1900_602" x1="267.879" y1="230.656" x2="267.879" y2="312.647" gradientUnits="userSpaceOnUse">
<stop stop-color="#EA580C"/>
</linearGradient>
<linearGradient id="paint51_linear_1900_602" x1="267.879" y1="207.23" x2="267.879" y2="254.082" gradientUnits="userSpaceOnUse">
<stop stop-color="#FB923C"/>
</linearGradient>
<linearGradient id="paint52_linear_1900_602" x1="232.586" y1="136.952" x2="232.586" y2="230.656" gradientUnits="userSpaceOnUse">
<stop stop-color="#EAB308"/>
</linearGradient>
<linearGradient id="paint53_linear_1900_602" x1="267.879" y1="136.952" x2="267.879" y2="230.656" gradientUnits="userSpaceOnUse">
<stop stop-color="#FB923C"/>
</linearGradient>
<linearGradient id="paint54_linear_1900_602" x1="267.879" y1="136.952" x2="267.879" y2="230.656" gradientUnits="userSpaceOnUse">
<stop stop-color="#FDBA74"/>
</linearGradient>
<linearGradient id="paint55_linear_1900_602" x1="362" y1="254.082" x2="362" y2="347.786" gradientUnits="userSpaceOnUse">
<stop stop-color="#EA580C"/>
</linearGradient>
<linearGradient id="paint56_linear_1900_602" x1="409.059" y1="230.656" x2="409.059" y2="312.647" gradientUnits="userSpaceOnUse">
<stop stop-color="#C2410C"/>
</linearGradient>
<linearGradient id="paint57_linear_1900_602" x1="362" y1="207.23" x2="362" y2="254.082" gradientUnits="userSpaceOnUse">
<stop stop-color="#F97316"/>
</linearGradient>
<linearGradient id="paint58_linear_1900_602" x1="362" y1="136.952" x2="362" y2="230.656" gradientUnits="userSpaceOnUse">
<stop stop-color="#F97316"/>
</linearGradient>
<linearGradient id="paint59_linear_1900_602" x1="397.297" y1="136.952" x2="397.297" y2="230.656" gradientUnits="userSpaceOnUse">
<stop stop-color="#EA580C"/>
</linearGradient>
<linearGradient id="paint60_linear_1900_602" x1="338.469" y1="207.23" x2="338.469" y2="289.221" gradientUnits="userSpaceOnUse">
<stop stop-color="#FDBA74"/>
</linearGradient>
<linearGradient id="paint61_linear_1900_602" x1="362" y1="207.23" x2="362" y2="289.221" gradientUnits="userSpaceOnUse">
<stop stop-color="#F97316"/>
</linearGradient>
<linearGradient id="paint62_linear_1900_602" x1="338.469" y1="277.508" x2="338.469" y2="312.647" gradientUnits="userSpaceOnUse">
<stop stop-color="#EA580C"/>
</linearGradient>
<linearGradient id="paint63_linear_1900_602" x1="444.355" y1="136.952" x2="444.355" y2="230.656" gradientUnits="userSpaceOnUse">
<stop stop-color="#CA8A04"/>
</linearGradient>
<linearGradient id="paint64_linear_1900_602" x1="232.586" y1="66.6741" x2="232.586" y2="148.665" gradientUnits="userSpaceOnUse">
<stop stop-color="#FACC15"/>
</linearGradient>
<linearGradient id="paint65_linear_1900_602" x1="220.82" y1="78.3871" x2="220.82" y2="172.091" gradientUnits="userSpaceOnUse">
<stop stop-color="#FACC15"/>
</linearGradient>
<linearGradient id="paint66_linear_1900_602" x1="279.645" y1="54.9611" x2="279.645" y2="136.952" gradientUnits="userSpaceOnUse">
<stop stop-color="#FEF08A"/>
</linearGradient>
<linearGradient id="paint67_linear_1900_602" x1="362" y1="54.9611" x2="362" y2="148.665" gradientUnits="userSpaceOnUse">
<stop stop-color="#FDE047"/>
</linearGradient>
<linearGradient id="paint68_linear_1900_602" x1="244.352" y1="125.239" x2="244.352" y2="155.693" gradientUnits="userSpaceOnUse">
<stop stop-color="#FDE047"/>
</linearGradient>
<linearGradient id="paint69_linear_1900_602" x1="420.824" y1="148.665" x2="420.824" y2="125.239" gradientUnits="userSpaceOnUse">
<stop stop-color="#FDE047"/>
</linearGradient>
<linearGradient id="paint70_linear_1900_602" x1="373.766" y1="155.693" x2="373.766" y2="125.239" gradientUnits="userSpaceOnUse">
<stop stop-color="#FEF08A"/>
</linearGradient>
<linearGradient id="paint71_linear_1900_602" x1="314.941" y1="165.063" x2="314.941" y2="132.267" gradientUnits="userSpaceOnUse">
<stop stop-color="#FACC15"/>
</linearGradient>
<linearGradient id="paint72_linear_1900_602" x1="244.352" y1="195.517" x2="244.352" y2="230.656" gradientUnits="userSpaceOnUse">
<stop stop-color="#EAB308"/>
</linearGradient>
<linearGradient id="paint73_linear_1900_602" x1="456.121" y1="195.517" x2="456.121" y2="230.656" gradientUnits="userSpaceOnUse">
<stop stop-color="#CA8A04"/>
</linearGradient>
<clipPath id="clip0_1900_602">
<rect width="724" height="901" fill="white"/>
</clipPath>
</defs>
</svg>
